<?xml version="1.0" encoding="UTF-8"?>
<!DOCTYPE svg PUBLIC "-//W3C//DTD SVG 1.1//EN" "http://www.w3.org/Graphics/SVG/1.1/DTD/svg11.dtd">
<svg xmlns="http://www.w3.org/2000/svg" version="1.1" width="2296px" height="572px" style="shape-rendering:geometricPrecision; text-rendering:geometricPrecision; image-rendering:optimizeQuality; fill-rule:evenodd; clip-rule:evenodd" xmlns:xlink="http://www.w3.org/1999/xlink">
<g><path style="opacity:1" fill="#fefefe" d="M -0.5,-0.5 C 764.833,-0.5 1530.17,-0.5 2295.5,-0.5C 2295.5,190.167 2295.5,380.833 2295.5,571.5C 1530.17,571.5 764.833,571.5 -0.5,571.5C -0.5,471.5 -0.5,371.5 -0.5,271.5C 7.25896,297.963 14.759,324.629 22,351.5C 26.231,364.05 32.5643,375.384 41,385.5C 64.1667,411.333 88.6667,435.833 114.5,459C 142.833,459.667 171.167,459.667 199.5,459C 201.624,441.753 200.124,424.586 195,407.5C 187.932,394.431 178.098,383.931 165.5,376C 153.674,369.921 142.007,363.588 130.5,357C 112.239,342.076 94.5722,326.41 77.5,310C 72.1343,305.312 66.1343,303.979 59.5,306C 54.3991,312.231 54.2324,318.731 59,325.5C 77.6667,346.167 96.3333,366.833 115,387.5C 116.022,391.474 114.522,393.308 110.5,393C 90.2674,371.106 70.434,348.939 51,326.5C 47.0767,318.986 43.4101,311.319 40,303.5C 33.8625,287.421 27.5292,271.421 21,255.5C 10.9009,246.08 3.73423,247.747 -0.5,260.5C -0.5,173.5 -0.5,86.5 -0.5,-0.5 Z"/></g>
<g><path style="opacity:1" fill="#17b8a6" d="M 148.5,137.5 C 165.393,136.124 180.726,140.29 194.5,150C 201.636,156.135 208.469,162.635 215,169.5C 221.5,163 228,156.5 234.5,150C 252.951,136.479 272.951,133.812 294.5,142C 320.336,153.828 332.836,173.995 332,202.5C 329.546,215.548 324.213,227.215 316,237.5C 310.374,244.794 304.374,251.794 298,258.5C 270.348,285.319 242.848,312.319 215.5,339.5C 197.617,322.114 179.283,305.281 160.5,289C 143.102,273.615 127.936,256.448 115,237.5C 107.146,225.271 102.479,211.938 101,197.5C 99.8696,164.125 115.703,144.125 148.5,137.5 Z"/></g>
<g><path style="opacity:1" fill="#1ab8a7" d="M 556.5,166.5 C 589.108,162.978 616.941,172.645 640,195.5C 647.548,204.263 652.715,214.263 655.5,225.5C 641.484,225.833 627.484,225.499 613.5,224.5C 606.36,209.925 594.693,201.759 578.5,200C 538.849,198.479 518.183,217.645 516.5,257.5C 515.24,277.567 521.906,294.4 536.5,308C 557.384,322.522 578.718,323.189 600.5,310C 606.168,305.505 610.501,300.005 613.5,293.5C 627.484,292.501 641.484,292.167 655.5,292.5C 645.33,324.495 623.663,343.662 590.5,350C 553.695,356.621 522.862,346.121 498,318.5C 476.932,288.876 472.599,256.876 485,222.5C 499.073,191.23 522.907,172.564 556.5,166.5 Z"/></g>
<g><path style="opacity:1" fill="#1ab8a7" d="M 1259.5,166.5 C 1292.47,162.768 1320.63,172.435 1344,195.5C 1351.55,204.263 1356.71,214.263 1359.5,225.5C 1345.48,225.833 1331.48,225.499 1317.5,224.5C 1310.36,209.925 1298.69,201.759 1282.5,200C 1242.86,198.468 1222.19,217.634 1220.5,257.5C 1219.35,279.579 1227.35,297.412 1244.5,311C 1269.84,325.018 1292.67,321.851 1313,301.5C 1314.75,298.995 1316.25,296.329 1317.5,293.5C 1331.48,292.501 1345.48,292.167 1359.5,292.5C 1349.33,324.495 1327.66,343.662 1294.5,350C 1251.25,357.446 1217.75,342.946 1194,306.5C 1176.36,269.232 1179.03,233.566 1202,199.5C 1217.28,181.612 1236.45,170.612 1259.5,166.5 Z"/></g>
<g><path style="opacity:1" fill="#1ab8a7" d="M 2224.5,236.5 C 2219.02,235.511 2213.36,235.178 2207.5,235.5C 2207.5,225.833 2207.5,216.167 2207.5,206.5C 2213.36,206.822 2219.02,206.489 2224.5,205.5C 2224.5,193.833 2224.5,182.167 2224.5,170.5C 2236.83,170.5 2249.17,170.5 2261.5,170.5C 2261.5,182.167 2261.5,193.833 2261.5,205.5C 2272.17,205.5 2282.83,205.5 2293.5,205.5C 2293.5,215.833 2293.5,226.167 2293.5,236.5C 2282.83,236.5 2272.17,236.5 2261.5,236.5C 2261.03,262.564 2261.53,288.564 2263,314.5C 2264.73,316.617 2266.9,318.117 2269.5,319C 2277.49,319.5 2285.49,319.666 2293.5,319.5C 2293.5,329.833 2293.5,340.167 2293.5,350.5C 2280.45,350.877 2267.45,350.377 2254.5,349C 2236.92,344.679 2227.09,333.512 2225,315.5C 2224.5,289.169 2224.33,262.835 2224.5,236.5 Z"/></g>
<g><path style="opacity:1" fill="#fefefe" d="M 204.5,199.5 C 212.174,199.334 219.841,199.5 227.5,200C 228.333,200.833 229.167,201.667 230,202.5C 230.5,209.492 230.666,216.492 230.5,223.5C 237.508,223.334 244.508,223.5 251.5,224C 252.333,224.833 253.167,225.667 254,226.5C 254.667,233.5 254.667,240.5 254,247.5C 253.626,248.416 253.126,249.25 252.5,250C 245.254,251.391 237.921,251.891 230.5,251.5C 230.925,258.615 230.425,265.615 229,272.5C 228.5,273 228,273.5 227.5,274C 219.833,274.667 212.167,274.667 204.5,274C 204,273.5 203.5,273 203,272.5C 202.5,265.508 202.334,258.508 202.5,251.5C 195.492,251.666 188.492,251.5 181.5,251C 180.667,250.167 179.833,249.333 179,248.5C 178.186,240.587 178.353,232.754 179.5,225C 187.054,223.568 194.721,223.068 202.5,223.5C 202.334,216.159 202.5,208.826 203,201.5C 203.717,200.956 204.217,200.289 204.5,199.5 Z"/></g>
<g><path style="opacity:1" fill="#18b8a6" d="M 791.5,206.5 C 803.5,206.5 815.5,206.5 827.5,206.5C 827.5,254.5 827.5,302.5 827.5,350.5C 815.5,350.5 803.5,350.5 791.5,350.5C 791.666,343.492 791.5,336.492 791,329.5C 775.154,348.728 754.821,356.061 730,351.5C 703.569,343.606 686.903,326.273 680,299.5C 673.505,271.831 678.838,246.831 696,224.5C 720.864,200.596 748.364,197.096 778.5,214C 782.967,217.465 787.133,221.298 791,225.5C 791.5,219.175 791.666,212.842 791.5,206.5 Z"/></g>
<g><path style="opacity:1" fill="#15b8a6" d="M 900.5,276.5 C 899.502,300.661 899.169,324.994 899.5,349.5C 887.833,349.5 876.167,349.5 864.5,349.5C 864.5,301.833 864.5,254.167 864.5,206.5C 876.167,206.5 887.833,206.5 899.5,206.5C 899.334,213.841 899.5,221.174 900,228.5C 900.717,227.956 901.217,227.289 901.5,226.5C 911.829,211.502 926.162,204.168 944.5,204.5C 944.5,217.167 944.5,229.833 944.5,242.5C 937.825,242.334 931.158,242.5 924.5,243C 907.107,247.246 899.107,258.412 900.5,276.5 Z"/></g>
<g><path style="opacity:1" fill="#1ab8a7" d="M 1059.5,305.5 C 1072.68,305.171 1085.68,305.505 1098.5,306.5C 1090.38,329.787 1074.38,344.62 1050.5,351C 1017.53,357.905 991.025,348.071 971,321.5C 956.448,293.821 955.781,265.821 969,237.5C 986.453,211.363 1010.95,200.197 1042.5,204C 1072.96,208.797 1092.46,225.964 1101,255.5C 1102.52,266.456 1102.85,277.456 1102,288.5C 1066.9,289.33 1031.74,289.83 996.5,290C 1000.36,312.529 1013.69,323.196 1036.5,322C 1047.04,320.404 1054.71,314.904 1059.5,305.5 Z"/></g>
<g><path style="opacity:1" fill="#19b8a6" d="M 1445.5,203.5 C 1470.67,201.39 1492.5,208.723 1511,225.5C 1529.93,248.586 1535.27,274.586 1527,303.5C 1516.59,330.574 1497.09,346.74 1468.5,352C 1434.91,356.493 1409.07,344.66 1391,316.5C 1380.84,293.573 1379.84,270.24 1388,246.5C 1399.83,222.337 1419,208.004 1445.5,203.5 Z"/></g>
<g><path style="opacity:1" fill="#17b8a6" d="M 1623.5,204.5 C 1642.13,201.577 1659.13,205.411 1674.5,216C 1685.32,225.809 1691.82,237.975 1694,252.5C 1694.5,285.165 1694.67,317.832 1694.5,350.5C 1682.5,350.5 1670.5,350.5 1658.5,350.5C 1658.67,321.498 1658.5,292.498 1658,263.5C 1655.33,244.659 1644.49,235.325 1625.5,235.5C 1609.72,235.781 1599.56,243.447 1595,258.5C 1593.55,289.13 1593.05,319.797 1593.5,350.5C 1581.5,350.5 1569.5,350.5 1557.5,350.5C 1557.5,302.167 1557.5,253.833 1557.5,205.5C 1569.5,205.5 1581.5,205.5 1593.5,205.5C 1593.33,211.509 1593.5,217.509 1594,223.5C 1602.19,214.451 1612.02,208.118 1623.5,204.5 Z"/></g>
<g><path style="opacity:1" fill="#16b8a6" d="M 1729.5,206.5 C 1741.5,206.5 1753.5,206.5 1765.5,206.5C 1765.17,212.599 1765.5,217.932 1766.5,222.5C 1781.83,206.561 1800.49,200.728 1822.5,205C 1847.4,211.234 1861.9,227.067 1866,252.5C 1866.5,285.165 1866.67,317.832 1866.5,350.5C 1854.5,350.5 1842.5,350.5 1830.5,350.5C 1830.67,321.498 1830.5,292.498 1830,263.5C 1825.59,241.353 1812.09,232.186 1789.5,236C 1777.46,238.889 1769.96,246.389 1767,258.5C 1765.55,289.13 1765.05,319.797 1765.5,350.5C 1753.5,350.5 1741.5,350.5 1729.5,350.5C 1729.5,302.5 1729.5,254.5 1729.5,206.5 Z"/></g>
<g><path style="opacity:1" fill="#1bb8a7" d="M 1953.5,203.5 C 2011.42,203.084 2038.42,231.751 2034.5,289.5C 1999.5,289.5 1964.5,289.5 1929.5,289.5C 1932.56,312.875 1945.89,323.708 1969.5,322C 1979.98,320.19 1987.65,314.523 1992.5,305C 2005.5,304.5 2018.5,304.333 2031.5,304.5C 2020.21,336.58 1997.38,352.58 1963,352.5C 1924.32,350.493 1900.99,330.493 1893,292.5C 1887.99,262.848 1896.49,238.015 1918.5,218C 1929.32,210.898 1940.99,206.065 1953.5,203.5 Z"/></g>
<g><path style="opacity:1" fill="#1ab8a7" d="M 2113.5,203.5 C 2140.1,200.528 2162.27,208.861 2180,228.5C 2185.75,236.331 2189.58,244.997 2191.5,254.5C 2178.5,254.667 2165.5,254.5 2152.5,254C 2144.79,238.074 2132.12,232.074 2114.5,236C 2101.68,240.763 2093.84,249.93 2091,263.5C 2090.33,272.167 2090.33,280.833 2091,289.5C 2095.74,315.293 2110.91,325.126 2136.5,319C 2144.25,315.579 2149.59,309.913 2152.5,302C 2165.5,301.5 2178.5,301.333 2191.5,301.5C 2184.01,329.49 2166.01,346.323 2137.5,352C 2091.01,356.493 2062.84,335.993 2053,290.5C 2049.27,263.014 2057.11,239.514 2076.5,220C 2087.67,211.744 2100.01,206.244 2113.5,203.5 Z"/></g>
<g><path style="opacity:1" fill="#82d9cf" d="M 863.5,206.5 C 875.655,205.505 887.989,205.171 900.5,205.5C 900.175,212.687 900.509,219.687 901.5,226.5C 901.217,227.289 900.717,227.956 900,228.5C 899.5,221.174 899.334,213.841 899.5,206.5C 887.833,206.5 876.167,206.5 864.5,206.5C 864.167,206.5 863.833,206.5 863.5,206.5 Z"/></g>
<g><path style="opacity:1" fill="#95ded6" d="M 1729.5,206.5 C 1741.66,205.505 1753.99,205.171 1766.5,205.5C 1766.5,211.167 1766.5,216.833 1766.5,222.5C 1765.5,217.932 1765.17,212.599 1765.5,206.5C 1753.5,206.5 1741.5,206.5 1729.5,206.5 Z"/></g>
<g><path style="opacity:1" fill="#7bd6cd" d="M 791.5,206.5 C 803.655,205.505 815.989,205.171 828.5,205.5C 828.832,254.003 828.499,302.336 827.5,350.5C 827.5,302.5 827.5,254.5 827.5,206.5C 815.5,206.5 803.5,206.5 791.5,206.5 Z"/></g>
<g><path style="opacity:1" fill="#51cabd" d="M 863.5,206.5 C 863.833,206.5 864.167,206.5 864.5,206.5C 864.5,254.167 864.5,301.833 864.5,349.5C 876.167,349.5 887.833,349.5 899.5,349.5C 899.169,324.994 899.502,300.661 900.5,276.5C 900.5,301.167 900.5,325.833 900.5,350.5C 888.167,350.5 875.833,350.5 863.5,350.5C 863.5,302.5 863.5,254.5 863.5,206.5 Z"/></g>
<g><path style="opacity:1" fill="#a6e4dc" d="M 2224.5,205.5 C 2219.02,206.489 2213.36,206.822 2207.5,206.5C 2207.5,216.167 2207.5,225.833 2207.5,235.5C 2213.36,235.178 2219.02,235.511 2224.5,236.5C 2218.5,236.5 2212.5,236.5 2206.5,236.5C 2206.5,226.167 2206.5,215.833 2206.5,205.5C 2212.5,205.5 2218.5,205.5 2224.5,205.5 Z"/></g>
<g><path style="opacity:1" fill="#fdfefe" d="M 1024.5,233.5 C 1038.83,232.053 1050.66,236.72 1060,247.5C 1063.44,252.662 1064.94,258.328 1064.5,264.5C 1041.82,264.833 1019.16,264.5 996.5,263.5C 999.37,247.301 1008.7,237.301 1024.5,233.5 Z"/></g>
<g><path style="opacity:1" fill="#fefefe" d="M 1953.5,234.5 C 1965.9,232.569 1977.23,235.069 1987.5,242C 1993.97,248.113 1997.31,255.613 1997.5,264.5C 1974.83,264.5 1952.17,264.5 1929.5,264.5C 1931.34,249.446 1939.34,239.446 1953.5,234.5 Z"/></g>
<g><path style="opacity:1" fill="#fefefe" d="M 1452.5,235.5 C 1479.37,236.867 1492.7,251.034 1492.5,278C 1491.31,309.86 1474.98,323.527 1443.5,319C 1426.15,310.815 1418.15,296.982 1419.5,277.5C 1418.77,253.933 1429.77,239.933 1452.5,235.5 Z"/></g>
<g><path style="opacity:1" fill="#fdfefe" d="M 747.5,235.5 C 771.664,235.165 786.164,246.832 791,270.5C 793.353,288.123 787.853,302.623 774.5,314C 752.89,325.638 735.057,321.472 721,301.5C 713.346,284.967 713.68,268.634 722,252.5C 728.489,243.682 736.989,238.015 747.5,235.5 Z"/></g>
<g><path style="opacity:1" fill="#17b8a6" d="M -0.5,271.5 C -0.5,267.833 -0.5,264.167 -0.5,260.5C 3.73423,247.747 10.9009,246.08 21,255.5C 27.5292,271.421 33.8625,287.421 40,303.5C 43.4101,311.319 47.0767,318.986 51,326.5C 70.434,348.939 90.2674,371.106 110.5,393C 114.522,393.308 116.022,391.474 115,387.5C 96.3333,366.833 77.6667,346.167 59,325.5C 54.2324,318.731 54.3991,312.231 59.5,306C 66.1343,303.979 72.1343,305.312 77.5,310C 94.5722,326.41 112.239,342.076 130.5,357C 142.007,363.588 153.674,369.921 165.5,376C 178.098,383.931 187.932,394.431 195,407.5C 200.124,424.586 201.624,441.753 199.5,459C 171.167,459.667 142.833,459.667 114.5,459C 88.6667,435.833 64.1667,411.333 41,385.5C 32.5643,375.384 26.231,364.05 22,351.5C 14.759,324.629 7.25896,297.963 -0.5,271.5 Z"/></g>
<g><path style="opacity:1" fill="#17b8a6" d="M 418.5,250.5 C 429.57,249.888 434.236,255.221 432.5,266.5C 432.414,271.212 431.914,275.879 431,280.5C 423.932,303.706 417.265,327.039 411,350.5C 404.961,367.585 395.627,382.585 383,395.5C 361.859,416.974 340.359,438.141 318.5,459C 289.833,459.667 261.167,459.667 232.5,459C 230.944,441.209 232.777,423.709 238,406.5C 244.033,396.13 251.867,387.296 261.5,380C 274.833,372.333 288.167,364.667 301.5,357C 319.761,342.076 337.428,326.41 354.5,310C 360.035,304.707 366.368,303.374 373.5,306C 376.929,311.13 377.429,316.63 375,322.5C 356.707,344.729 337.707,366.396 318,387.5C 316.417,392.1 317.917,393.934 322.5,393C 341.333,372.167 360.167,351.333 379,330.5C 390.968,307.228 401.301,283.228 410,258.5C 412.074,254.923 414.907,252.256 418.5,250.5 Z"/></g>
<g><path style="opacity:1" fill="#8bdbd2" d="M 1059.5,305.5 C 1072.67,304.175 1086.01,304.175 1099.5,305.5C 1099.38,306.107 1099.04,306.44 1098.5,306.5C 1085.68,305.505 1072.68,305.171 1059.5,305.5 Z"/></g>
<g><path style="opacity:1" fill="#595959" d="M 681.5,413.5 C 681.334,420.841 681.5,428.174 682,435.5C 682.717,434.956 683.217,434.289 683.5,433.5C 693.734,427.407 703.234,428.407 712,436.5C 713.275,438.717 714.275,441.051 715,443.5C 715.5,454.828 715.667,466.162 715.5,477.5C 712.167,477.5 708.833,477.5 705.5,477.5C 705.667,466.828 705.5,456.161 705,445.5C 701.171,438.221 695.337,436.054 687.5,439C 684.894,440.938 683.061,443.438 682,446.5C 681.5,456.828 681.334,467.161 681.5,477.5C 678.167,477.5 674.833,477.5 671.5,477.5C 671.5,456.167 671.5,434.833 671.5,413.5C 674.833,413.5 678.167,413.5 681.5,413.5 Z"/></g>
<g><path style="opacity:1" fill="#cacaca" d="M 681.5,413.5 C 682.167,420.167 682.833,426.833 683.5,433.5C 683.217,434.289 682.717,434.956 682,435.5C 681.5,428.174 681.334,420.841 681.5,413.5 Z"/></g>
<g><path style="opacity:1" fill="#595959" d="M 727.5,413.5 C 730.833,413.5 734.167,413.5 737.5,413.5C 737.334,421.174 737.5,428.841 738,436.5C 747.483,428.129 757.65,427.296 768.5,434C 777.772,444.946 778.939,456.779 772,469.5C 761.389,480.642 750.222,481.309 738.5,471.5C 737.534,473.396 737.201,475.396 737.5,477.5C 734.167,477.5 730.833,477.5 727.5,477.5C 727.5,456.167 727.5,434.833 727.5,413.5 Z"/></g>
<g><path style="opacity:1" fill="#565656" d="M 968.5,413.5 C 971.833,413.5 975.167,413.5 978.5,413.5C 978.5,434.833 978.5,456.167 978.5,477.5C 975.167,477.5 971.833,477.5 968.5,477.5C 968.662,475.473 968.495,473.473 968,471.5C 957.315,480.754 946.649,480.754 936,471.5C 926.309,457.584 927.476,444.75 939.5,433C 949.551,427.722 959.051,428.555 968,435.5C 968.5,428.174 968.666,420.841 968.5,413.5 Z"/></g>
<g><path style="opacity:1" fill="#5b5b5b" d="M 1232.5,413.5 C 1235.83,413.5 1239.17,413.5 1242.5,413.5C 1242.5,434.833 1242.5,456.167 1242.5,477.5C 1239.17,477.5 1235.83,477.5 1232.5,477.5C 1232.5,456.167 1232.5,434.833 1232.5,413.5 Z"/></g>
<g><path style="opacity:1" fill="#575757" d="M 506.5,417.5 C 514.84,417.334 523.173,417.5 531.5,418C 547.814,420.311 556.48,429.645 557.5,446C 557.708,464.453 548.708,474.787 530.5,477C 522.507,477.5 514.507,477.666 506.5,477.5C 506.5,457.5 506.5,437.5 506.5,417.5 Z"/></g>
<g><path style="opacity:1" fill="#595959" d="M 1013.5,417.5 C 1022.84,417.334 1032.17,417.5 1041.5,418C 1055.08,423.004 1058.92,432.171 1053,445.5C 1049.08,449.709 1044.25,452.209 1038.5,453C 1033.51,453.499 1028.51,453.666 1023.5,453.5C 1023.5,461.5 1023.5,469.5 1023.5,477.5C 1020.17,477.5 1016.83,477.5 1013.5,477.5C 1013.5,457.5 1013.5,437.5 1013.5,417.5 Z"/></g>
<g><path style="opacity:1" fill="#fdfdfd" d="M 516.5,425.5 C 540.849,423.011 550.682,433.677 546,457.5C 543.227,463.94 538.394,467.774 531.5,469C 526.511,469.499 521.511,469.666 516.5,469.5C 516.5,454.833 516.5,440.167 516.5,425.5 Z"/></g>
<g><path style="opacity:1" fill="#c7c7c7" d="M 1024.5,425.5 C 1024.5,431.833 1024.5,438.167 1024.5,444.5C 1028.83,444.5 1033.17,444.5 1037.5,444.5C 1033.03,445.486 1028.36,445.819 1023.5,445.5C 1023.18,438.646 1023.51,431.979 1024.5,425.5 Z"/></g>
<g><path style="opacity:1" fill="#fdfdfd" d="M 1024.5,425.5 C 1029.18,425.334 1033.85,425.501 1038.5,426C 1045.61,429.069 1047.45,434.236 1044,441.5C 1042.27,443.451 1040.1,444.451 1037.5,444.5C 1033.17,444.5 1028.83,444.5 1024.5,444.5C 1024.5,438.167 1024.5,431.833 1024.5,425.5 Z"/></g>
<g><path style="opacity:1" fill="#575757" d="M 601.5,435.5 C 601.56,436.043 601.893,436.376 602.5,436.5C 603.466,434.604 603.799,432.604 603.5,430.5C 606.5,430.5 609.5,430.5 612.5,430.5C 612.5,446.167 612.5,461.833 612.5,477.5C 609.167,477.5 605.833,477.5 602.5,477.5C 602.662,475.473 602.495,473.473 602,471.5C 587.448,482.595 575.448,480.262 566,464.5C 560.733,448.942 565.233,437.442 579.5,430C 585.705,429.016 591.705,429.683 597.5,432C 599.093,432.949 600.426,434.115 601.5,435.5 Z"/></g>
<g><path style="opacity:1" fill="#9f9f9f" d="M 612.5,430.5 C 609.5,430.5 606.5,430.5 603.5,430.5C 603.799,432.604 603.466,434.604 602.5,436.5C 601.893,436.376 601.56,436.043 601.5,435.5C 602.461,433.735 602.795,431.735 602.5,429.5C 606.042,429.187 609.375,429.521 612.5,430.5 Z"/></g>
<g><path style="opacity:1" fill="#595959" d="M 634.5,429.5 C 644.282,427.645 652.448,430.312 659,437.5C 659.977,439.74 660.477,442.073 660.5,444.5C 657.167,444.5 653.833,444.5 650.5,444.5C 649.533,439.422 646.367,437.088 641,437.5C 633.326,438.114 631.826,441.281 636.5,447C 642.191,448.874 647.857,450.874 653.5,453C 663.318,459.442 663.985,466.775 655.5,475C 644.979,480.514 635.312,479.348 626.5,471.5C 624.506,468.85 623.506,465.85 623.5,462.5C 626.833,462.5 630.167,462.5 633.5,462.5C 633.744,465.263 635.077,467.429 637.5,469C 641.167,469.667 644.833,469.667 648.5,469C 652.5,466 652.5,463 648.5,460C 641.103,458.313 634.103,455.646 627.5,452C 621.666,441.842 623.999,434.342 634.5,429.5 Z"/></g>
<g><path style="opacity:1" fill="#575757" d="M 799.5,429.5 C 820.652,427.162 831.152,436.495 831,457.5C 827.36,473.081 817.526,479.914 801.5,478C 786.156,472.489 780.323,461.656 784,445.5C 787.02,437.981 792.187,432.648 799.5,429.5 Z"/></g>
<g><path style="opacity:1" fill="#565656" d="M 876.5,435.5 C 877.518,434.708 877.851,433.041 877.5,430.5C 880.5,430.5 883.5,430.5 886.5,430.5C 886.5,446.167 886.5,461.833 886.5,477.5C 883.5,477.5 880.5,477.5 877.5,477.5C 877.663,475.143 877.497,472.81 877,470.5C 876.283,471.044 875.783,471.711 875.5,472.5C 863.816,481.249 852.983,480.249 843,469.5C 836.003,456.748 837.169,444.915 846.5,434C 856.861,427.715 866.861,428.215 876.5,435.5 Z"/></g>
<g><path style="opacity:1" fill="#565656" d="M 900.5,477.5 C 900.5,461.833 900.5,446.167 900.5,430.5C 903.5,430.5 906.5,430.5 909.5,430.5C 909.338,432.527 909.505,434.527 910,436.5C 910.717,435.956 911.217,435.289 911.5,434.5C 914.82,430.345 919.154,428.678 924.5,429.5C 924.5,432.833 924.5,436.167 924.5,439.5C 918.93,438.416 914.43,440.083 911,444.5C 909.569,455.422 909.069,466.422 909.5,477.5C 906.5,477.5 903.5,477.5 900.5,477.5 Z"/></g>
<g><path style="opacity:1" fill="#575757" d="M 1099.5,435.5 C 1099.56,436.043 1099.89,436.376 1100.5,436.5C 1101.47,434.604 1101.8,432.604 1101.5,430.5C 1104.5,430.5 1107.5,430.5 1110.5,430.5C 1110.5,446.167 1110.5,461.833 1110.5,477.5C 1107.17,477.5 1103.83,477.5 1100.5,477.5C 1100.66,475.473 1100.5,473.473 1100,471.5C 1085.45,482.595 1073.45,480.262 1064,464.5C 1058.73,448.942 1063.23,437.442 1077.5,430C 1083.7,429.016 1089.7,429.683 1095.5,432C 1097.09,432.949 1098.43,434.115 1099.5,435.5 Z"/></g>
<g><path style="opacity:1" fill="#9f9f9f" d="M 1110.5,430.5 C 1107.5,430.5 1104.5,430.5 1101.5,430.5C 1101.8,432.604 1101.47,434.604 1100.5,436.5C 1099.89,436.376 1099.56,436.043 1099.5,435.5C 1100.46,433.735 1100.79,431.735 1100.5,429.5C 1104.04,429.187 1107.38,429.521 1110.5,430.5 Z"/></g>
<g><path style="opacity:1" fill="#565656" d="M 1124.5,477.5 C 1124.5,461.833 1124.5,446.167 1124.5,430.5C 1127.5,430.5 1130.5,430.5 1133.5,430.5C 1133.34,431.873 1133.51,433.207 1134,434.5C 1143.88,427.7 1153.55,428.033 1163,435.5C 1164.82,438.311 1166.16,441.311 1167,444.5C 1167.5,455.495 1167.67,466.495 1167.5,477.5C 1164.17,477.5 1160.83,477.5 1157.5,477.5C 1157.67,466.828 1157.5,456.161 1157,445.5C 1153.11,438.201 1147.27,436.034 1139.5,439C 1137.08,440.663 1135.25,442.829 1134,445.5C 1133.5,456.161 1133.33,466.828 1133.5,477.5C 1130.5,477.5 1127.5,477.5 1124.5,477.5 Z"/></g>
<g><path style="opacity:1" fill="#575757" d="M 1192.5,429.5 C 1213.59,427.181 1223.92,436.514 1223.5,457.5C 1211.17,457.5 1198.83,457.5 1186.5,457.5C 1188.7,467.939 1195.03,471.772 1205.5,469C 1207.79,467.71 1209.79,466.043 1211.5,464C 1214.88,463.176 1218.22,463.343 1221.5,464.5C 1215.79,475.354 1206.79,479.854 1194.5,478C 1180.01,472.538 1174.18,462.038 1177,446.5C 1179.44,438.233 1184.61,432.566 1192.5,429.5 Z"/></g>
<g><path style="opacity:1" fill="#a7a7a7" d="M 886.5,477.5 C 886.5,461.833 886.5,446.167 886.5,430.5C 883.5,430.5 880.5,430.5 877.5,430.5C 877.851,433.041 877.518,434.708 876.5,435.5C 876.5,433.5 876.5,431.5 876.5,429.5C 880.167,429.5 883.833,429.5 887.5,429.5C 887.83,445.675 887.496,461.675 886.5,477.5 Z"/></g>
<g><path style="opacity:1" fill="#a7a7a7" d="M 911.5,434.5 C 911.217,435.289 910.717,435.956 910,436.5C 909.505,434.527 909.338,432.527 909.5,430.5C 906.5,430.5 903.5,430.5 900.5,430.5C 900.5,446.167 900.5,461.833 900.5,477.5C 899.504,461.675 899.17,445.675 899.5,429.5C 903.167,429.5 906.833,429.5 910.5,429.5C 910.216,431.415 910.549,433.081 911.5,434.5 Z"/></g>
<g><path style="opacity:1" fill="#7e7e7e" d="M 1133.5,430.5 C 1130.5,430.5 1127.5,430.5 1124.5,430.5C 1124.5,446.167 1124.5,461.833 1124.5,477.5C 1123.5,461.675 1123.17,445.675 1123.5,429.5C 1127.04,429.187 1130.38,429.521 1133.5,430.5 Z"/></g>
<g><path style="opacity:1" fill="#f9f9f9" d="M 1195.5,437.5 C 1202.56,436.456 1208.06,438.79 1212,444.5C 1212.49,446.134 1212.66,447.801 1212.5,449.5C 1203.83,449.5 1195.17,449.5 1186.5,449.5C 1187.58,443.99 1190.58,439.99 1195.5,437.5 Z"/></g>
<g><path style="opacity:1" fill="#fcfcfc" d="M 584.5,437.5 C 600.106,438.349 605.606,446.349 601,461.5C 596.423,469.248 589.923,471.415 581.5,468C 574.859,462.329 572.693,455.163 575,446.5C 577.406,442.592 580.572,439.592 584.5,437.5 Z"/></g>
<g><path style="opacity:1" fill="#fbfbfb" d="M 748.5,437.5 C 762.978,437.821 768.811,445.154 766,459.5C 761.04,469.561 753.54,472.061 743.5,467C 737.517,461.174 736.017,454.341 739,446.5C 741.406,442.592 744.572,439.592 748.5,437.5 Z"/></g>
<g><path style="opacity:1" fill="#fcfcfc" d="M 803.5,437.5 C 819.991,439.193 825.158,447.86 819,463.5C 813.531,469.405 807.031,470.905 799.5,468C 796.533,465.9 794.7,463.066 794,459.5C 790.964,449.256 794.131,441.923 803.5,437.5 Z"/></g>
<g><path style="opacity:1" fill="#fafafa" d="M 858.5,437.5 C 875.017,438.53 880.517,446.864 875,462.5C 870.016,469.362 863.516,471.195 855.5,468C 848.099,460.968 846.599,452.801 851,443.5C 853.114,440.879 855.614,438.879 858.5,437.5 Z"/></g>
<g><path style="opacity:1" fill="#fbfbfb" d="M 950.5,437.5 C 959.086,437.031 964.919,440.698 968,448.5C 970.131,463.029 963.965,469.863 949.5,469C 941.382,464.591 938.215,457.758 940,448.5C 942.357,443.645 945.857,439.979 950.5,437.5 Z"/></g>
<g><path style="opacity:1" fill="#fcfcfc" d="M 1082.5,437.5 C 1098.11,438.349 1103.61,446.349 1099,461.5C 1094.42,469.248 1087.92,471.415 1079.5,468C 1072.86,462.329 1070.69,455.163 1073,446.5C 1075.41,442.592 1078.57,439.592 1082.5,437.5 Z"/></g>
<g><path style="opacity:1" fill="#16b8a6" d="M 254.5,466.5 C 277.857,466.138 301.191,466.638 324.5,468C 325.654,479.757 325.821,491.591 325,503.5C 293.905,504.662 262.738,504.829 231.5,504C 230.175,492.197 230.175,480.363 231.5,468.5C 239.323,467.833 246.99,467.167 254.5,466.5 Z"/></g>
<g><path style="opacity:1" fill="#19b8a6" d="M 108.5,467.5 C 139.168,467.333 169.835,467.5 200.5,468C 201.654,479.757 201.821,491.591 201,503.5C 170.238,504.662 139.405,504.829 108.5,504C 107.176,491.833 107.176,479.667 108.5,467.5 Z"/></g>
<g><path style="opacity:1" fill="#b8b8b8" d="M 877.5,477.5 C 876.833,475.833 876.167,474.167 875.5,472.5C 875.783,471.711 876.283,471.044 877,470.5C 877.497,472.81 877.663,475.143 877.5,477.5 Z"/></g>
</svg>
