<?xml version="1.0" encoding="UTF-8"?>
<svg version="1.1" xmlns="http://www.w3.org/2000/svg" width="1542" height="263">
<path d="M0 0 C508.86 0 1017.72 0 1542 0 C1542 86.79 1542 173.58 1542 263 C1033.14 263 524.28 263 0 263 C0 176.21 0 89.42 0 0 Z " fill="#FEFEFE" transform="translate(0,0)"/>
<path d="M0 0 C5.2017571 4.01472822 9.82322152 8.52393629 14.3125 13.3125 C18.15563509 11.80269693 19.80952856 9.52252552 22.3125 6.3125 C33.3148896 -3.9621725 43.13310558 -8.3378483 58.0625 -8.02734375 C68.28152724 -7.47266232 76.97203548 -2.56738635 84.3125 4.3125 C84.94929687 4.90804688 85.58609375 5.50359375 86.2421875 6.1171875 C93.59455664 13.7219985 96.77400582 22.47886362 96.875 32.9375 C96.74933161 39.74827781 95.71544273 45.31925757 92.3125 51.3125 C91.61833984 52.57707031 91.61833984 52.57707031 90.91015625 53.8671875 C81.72513317 69.3627032 67.99974674 81.9178457 55.32958984 94.5012207 C52.54851454 97.26389292 49.77567165 100.03463093 47.00390625 102.80664062 C45.21661886 104.58901612 43.42887454 106.37093357 41.640625 108.15234375 C40.82273499 108.96912094 40.00484497 109.78589813 39.16217041 110.62742615 C34.8917002 114.86303459 30.55016165 118.95211771 25.98175049 122.8656311 C23.82685307 124.73344787 21.81051588 126.71630527 19.8125 128.75 C19.1421875 129.42933594 18.471875 130.10867187 17.78125 130.80859375 C17.2965625 131.30488281 16.811875 131.80117187 16.3125 132.3125 C12.43906491 130.70240228 9.64178263 128.0814908 6.625 125.25 C6.09680664 124.76047852 5.56861328 124.27095703 5.02441406 123.76660156 C1.04077725 120.05287843 -2.80581991 116.21450351 -6.6328125 112.33984375 C-9.08219635 109.92305626 -11.65358039 107.691486 -14.26171875 105.44921875 C-19.61049867 100.73781357 -24.78622169 95.83382578 -29.96630859 90.93847656 C-31.39654094 89.58736345 -32.83233462 88.24214024 -34.26953125 86.8984375 C-50.49521234 71.2867011 -63.98809567 51.47477187 -65.125 28.4375 C-64.92764235 18.84098404 -60.95873391 10.77868755 -54.37109375 3.921875 C-39.26889798 -10.51456272 -17.15909871 -11.93987285 0 0 Z " fill="#15B8A6" transform="translate(134.6875,10.6875)"/>
<path d="M0 0 C4.42216337 2.68785617 8.32316989 5.80563944 12.0625 9.375 C12.3925 5.745 12.7225 2.115 13.0625 -1.625 C21.3125 -1.625 29.5625 -1.625 38.0625 -1.625 C38.0625 29.725 38.0625 61.075 38.0625 93.375 C29.8125 93.375 21.5625 93.375 13.0625 93.375 C12.7325 89.745 12.4025 86.115 12.0625 82.375 C11.11375 83.261875 10.165 84.14875 9.1875 85.0625 C1.30756571 91.84889239 -6.87918678 94.56252569 -17.0625 94.625 C-17.87976563 94.645625 -18.69703125 94.66625 -19.5390625 94.6875 C-31.2134559 94.76138857 -40.0761221 89.95338448 -48.625 82.25 C-52.98970642 77.65237421 -55.50457218 72.16979171 -57.9375 66.375 C-58.28039062 65.56804687 -58.62328125 64.76109375 -58.9765625 63.9296875 C-63.33559494 51.25997638 -62.77161893 34.70577974 -57.55078125 22.42578125 C-53.15669219 14.11637796 -48.0693667 7.23338302 -39.9375 2.375 C-39.21949219 1.8903125 -38.50148438 1.405625 -37.76171875 0.90625 C-27.23416776 -5.13827688 -10.91181354 -5.22168855 0 0 Z " fill="#17B9A7" transform="translate(533.9375,49.625)"/>
<path d="M0 0 C4.51183753 2.92681015 6.06016515 5.68437357 7.90234375 10.6796875 C8.26991539 11.65350876 8.26991539 11.65350876 8.64491272 12.64700317 C9.423557 14.71794702 10.18126632 16.79578087 10.9375 18.875 C17.2879034 36.00860532 22.94656562 50.9342054 35.8125 64.3125 C39.87273878 68.59312752 43.82058741 72.88175043 47.5 77.5 C51.28873341 82.22519393 55.2797544 86.72832552 59.375 91.1875 C59.98279297 91.86039062 60.59058594 92.53328125 61.21679688 93.2265625 C61.79236328 93.84660156 62.36792969 94.46664062 62.9609375 95.10546875 C63.73123291 95.94307739 63.73123291 95.94307739 64.51708984 96.79760742 C66.07018562 98.31490619 66.07018562 98.31490619 69 98 C68.56850272 93.53400318 65.45967934 90.93923936 62.5 87.875 C61.39660324 86.70753399 60.29374285 85.53956082 59.19140625 84.37109375 C58.64629395 83.7972998 58.10118164 83.22350586 57.53955078 82.63232422 C55.46691131 80.43478735 53.44952602 78.19053096 51.4375 75.9375 C49.0617173 73.28145256 46.67323896 70.6403263 44.24609375 68.03125 C28.20087895 50.76208556 28.20087895 50.76208556 27.75 44.5625 C28 41 28 41 29 39.0625 C32.33594765 37.29027781 35.39625927 37.22730604 39 38 C45.0725354 41.10319945 49.65669858 46.60710193 54.359375 51.41796875 C57.83441486 54.81589974 61.5552346 57.82341397 65.35546875 60.84765625 C67.79592816 62.83390903 70.08092481 64.91101815 72.375 67.0625 C78.9647191 72.95489433 86.62498948 77.24042002 94.4140625 81.33984375 C105.92338853 87.43115759 120.14092488 95.04960154 125 108 C126.27320461 112.96820692 127.20441384 117.93082605 128 123 C128.18820313 124.15628906 128.37640625 125.31257813 128.5703125 126.50390625 C129.01973206 130.16054722 129.13285289 133.69199572 129.125 137.375 C129.12757813 138.59960938 129.13015625 139.82421875 129.1328125 141.0859375 C129 144 129 144 128 145 C126.19700993 145.13045529 124.3889393 145.19128873 122.58154297 145.22460938 C121.42298798 145.24712769 120.26443298 145.269646 119.07077026 145.29284668 C113.74774448 145.36361952 108.42490053 145.4215905 103.1015625 145.45996094 C100.29397013 145.48218869 97.48771724 145.52387402 94.68066406 145.58300781 C90.63846648 145.66799502 86.59771746 145.69527339 82.5546875 145.71875 C81.30340057 145.75174194 80.05211365 145.78473389 78.76290894 145.81872559 C70.241113 145.79919205 70.241113 145.79919205 66.8862915 143.63891602 C65.11160334 141.85104313 63.57807979 139.9619083 62 138 C60.69592387 136.80801273 59.36673319 135.64299313 58.01538086 134.50488281 C54.10360947 131.12615809 50.4112679 127.57254877 46.75390625 123.921875 C45.77078712 122.94374847 45.77078712 122.94374847 44.76780701 121.94586182 C43.39264954 120.57572761 42.01880745 119.20427202 40.64624023 117.83154297 C38.57620785 115.76369339 36.49830327 113.70398475 34.41992188 111.64453125 C18.14357598 95.43693496 6.05394024 80.54650489 0.66186523 57.72753906 C-1.10836529 50.30359652 -3.2840691 43.0045763 -5.45068359 35.68823242 C-6.88707608 30.83261012 -8.31361051 25.97416496 -9.69140625 21.1015625 C-9.9344751 20.24771973 -10.17754395 19.39387695 -10.42797852 18.51416016 C-11.71684321 12.84931654 -11.71753711 7.85907341 -9.625 2.4375 C-6.81430954 -1.77853569 -4.66207903 -1.18837309 0 0 Z " fill="#15B8A6" transform="translate(11,82)"/>
<path d="M0 0 C3.42885754 3.42885754 2.60859505 8.39893263 2.64697266 13.02172852 C2.36153532 24.70542762 -1.45028013 35.58122891 -4.95263672 46.63232422 C-6.20990156 50.67491424 -7.33923204 54.74456524 -8.45361328 58.82836914 C-13.26259883 76.33493231 -20.23880826 88.82859187 -32.51171875 102.07421875 C-33.28301117 102.90773361 -33.28301117 102.90773361 -34.06988525 103.75808716 C-39.44574178 109.53200143 -44.98563202 115.13727115 -50.57421875 120.70458984 C-52.26681347 122.39175958 -53.95390597 124.08430196 -55.640625 125.77734375 C-60.75617251 130.89569399 -65.8742652 135.94428779 -71.40527344 140.61962891 C-73.03348402 141.94137243 -73.03348402 141.94137243 -74.23414612 143.56498718 C-76.7709257 145.62648913 -78.60876976 145.36095113 -81.84838867 145.34057617 C-83.0494072 145.34034958 -84.25042572 145.34012299 -85.48783875 145.33988953 C-86.78478165 145.32440567 -88.08172455 145.30892181 -89.41796875 145.29296875 C-90.75889105 145.28737234 -92.09981949 145.28310245 -93.44075012 145.28010559 C-96.96724431 145.26866018 -100.49336684 145.23919618 -104.01971436 145.20599365 C-107.61921155 145.17528589 -111.2187689 145.16159878 -114.81835938 145.14648438 C-121.87905814 145.11432579 -128.93950479 145.06313345 -136 145 C-137.19526844 139.4158848 -136.75581555 134.47402114 -136.25 128.8125 C-136.17523438 127.82185547 -136.10046875 126.83121094 -136.0234375 125.81054688 C-134.89106994 112.72827011 -131.33613078 102.80636309 -121.51171875 93.69140625 C-114.63251561 88.23280234 -107.08481749 84.22404307 -99.36865234 80.09033203 C-89.42718055 74.7140714 -81.01148262 68.10950975 -72.69921875 60.453125 C-68.91304241 57.01214274 -65.02105661 53.70003704 -61.11523438 50.39599609 C-57.66969396 47.47219277 -54.38009739 44.44953686 -51.125 41.3125 C-47.10423592 37.71181575 -44.40880618 36.72023416 -39 37 C-36.93844928 38.52354788 -36.13083116 39.48580312 -35.49609375 41.98046875 C-35.31477584 48.81010992 -37.47922014 52.06824016 -42 57 C-42.44520996 57.49048828 -42.89041992 57.98097656 -43.34912109 58.48632812 C-45.91589252 61.31054138 -48.5052095 64.11234038 -51.11328125 66.8984375 C-53.88496209 69.86357435 -56.56454769 72.89820223 -59.21875 75.96875 C-61.4854941 78.55363362 -63.80559491 81.08729796 -66.125 83.625 C-67.75158127 85.41523122 -69.37675011 87.20674758 -71 89 C-71.5775 89.63679688 -72.155 90.27359375 -72.75 90.9296875 C-75.50545516 93.98429988 -75.50545516 93.98429988 -76 98 C-72.61915958 97.4243719 -71.08756563 96.42260379 -68.79296875 93.90234375 C-68.20990967 93.26965576 -67.62685059 92.63696777 -67.02612305 91.98510742 C-66.41937744 91.30939697 -65.81263184 90.63368652 -65.1875 89.9375 C-64.55948486 89.25083252 -63.93146973 88.56416504 -63.28442383 87.85668945 C-59.68297894 83.90694416 -56.11407326 79.92792604 -52.62890625 75.875 C-50.66334911 73.61248819 -48.64326691 71.40309317 -46.625 69.1875 C-45.48417969 67.90746094 -45.48417969 67.90746094 -44.3203125 66.6015625 C-42.81361435 64.91223427 -41.28841059 63.23916565 -39.7421875 61.5859375 C-30.75598288 51.47254346 -25.98898647 39.18902071 -21.12890625 26.72265625 C-20.76209747 25.78200066 -20.76209747 25.78200066 -20.38787842 24.82234192 C-19.17443159 21.69886491 -17.97986828 18.57027639 -16.80517578 15.43188477 C-16.36802246 14.28131592 -15.93086914 13.13074707 -15.48046875 11.9453125 C-15.09785889 10.91937988 -14.71524902 9.89344727 -14.32104492 8.83642578 C-10.9116585 1.5161058 -7.9518463 -0.42599177 0 0 Z " fill="#15B8A6" transform="translate(298,82)"/>
<path d="M0 0 C1.00353516 -0.020625 2.00707031 -0.04125 3.04101562 -0.0625 C9.55437004 -0.09640165 14.79746985 0.76160936 20.8125 3.25 C21.70839844 3.59160156 22.60429688 3.93320312 23.52734375 4.28515625 C34.61395497 9.40954773 41.95845108 18.19622522 46.8125 29.25 C47.32103516 30.39855469 47.32103516 30.39855469 47.83984375 31.5703125 C52.73785646 44.8874899 50.25089577 59.5695886 44.8125 72.25 C38.06607927 84.85559506 27.86855355 91.7059612 14.67578125 96.35546875 C2.0916531 99.26928609 -13.00570451 99.05240849 -24.1875 92.25 C-25.00089844 91.79238281 -25.81429687 91.33476562 -26.65234375 90.86328125 C-35.69066939 85.3741151 -41.12972804 77.89649817 -45.1875 68.25 C-45.50847656 67.52683594 -45.82945312 66.80367188 -46.16015625 66.05859375 C-49.92152172 55.99912797 -50.00734625 41.56673474 -46.21484375 31.5 C-45.87582031 30.7575 -45.53679688 30.015 -45.1875 29.25 C-44.79691406 28.363125 -44.40632812 27.47625 -44.00390625 26.5625 C-37.70918831 13.72341525 -28.09378204 6.56530759 -15.1875 1.25 C-10.21740941 -0.25351874 -5.14857687 0.02595376 0 0 Z " fill="#16B8A6" transform="translate(985.1875,46.75)"/>
<path d="M0 0 C9.90970316 7.30266616 16.34615336 17.59702036 18.83203125 29.6328125 C19.69533993 36.17629989 19.77723899 42.8324503 18.17578125 49.23828125 C-4.59421875 49.23828125 -27.36421875 49.23828125 -50.82421875 49.23828125 C-47.74894831 60.87004148 -47.74894831 60.87004148 -39.46484375 68.28515625 C-32.60711147 70.7604324 -23.82987333 70.5894119 -17.13671875 67.61328125 C-14.30062748 66.08765974 -13.79645793 65.1753672 -12.4453125 62.11328125 C-9.82421875 59.23828125 -9.82421875 59.23828125 -7.06958008 58.75244141 C-3.55404951 58.64655971 -0.08822907 58.71686415 3.42578125 58.86328125 C4.6478125 58.89035156 5.86984375 58.91742188 7.12890625 58.9453125 C10.14630866 59.01603287 13.16015695 59.11469009 16.17578125 59.23828125 C12.63060049 70.71637949 6.43603846 79.06797211 -3.93359375 85.55859375 C-15.61098789 91.66885813 -31.17159208 92.6545821 -43.90234375 89.36328125 C-57.47325997 84.47517872 -66.51452403 75.09424389 -72.56640625 62.26171875 C-77.70643044 49.90650532 -77.54996304 34.69692433 -73.08203125 22.16796875 C-66.98912771 7.97642324 -57.97374909 0.07052494 -43.82421875 -5.76171875 C-29.19075016 -9.21424237 -12.82316759 -7.9989607 0 0 Z " fill="#17B9A7" transform="translate(1348.82421875,53.76171875)"/>
<path d="M0 0 C10.33720624 7.54428725 17.23109717 17.60394899 19.43359375 30.35546875 C19.66867371 33.50840374 19.67026606 36.63300094 19.62109375 39.79296875 C19.62012695 41.0140332 19.62012695 41.0140332 19.61914062 42.25976562 C19.57444196 48.21462054 19.57444196 48.21462054 18.43359375 49.35546875 C16.28615826 49.4497247 14.13558349 49.47289523 11.98608398 49.46899414 C10.97637039 49.46921318 10.97637039 49.46921318 9.94625854 49.46943665 C7.71153591 49.46873753 5.47689565 49.46094527 3.2421875 49.453125 C1.69662013 49.45126081 0.15105218 49.44983691 -1.39451599 49.44883728 C-5.46997702 49.44501215 -9.54540262 49.43518192 -13.62084961 49.4241333 C-17.77652507 49.41391907 -21.93220624 49.40933964 -26.08789062 49.40429688 C-34.24741212 49.39355964 -42.40690478 49.37648329 -50.56640625 49.35546875 C-50.13464367 50.94275888 -49.69086695 52.52678357 -49.2421875 54.109375 C-48.99637939 54.99181885 -48.75057129 55.8742627 -48.49731445 56.78344727 C-46.64056735 61.91348418 -43.43249113 65.21982281 -38.83203125 68.01953125 C-32.54823935 70.59017339 -24.69918559 70.55073336 -18.17578125 68.6640625 C-14.95986898 66.99318634 -13.65074402 65.55103459 -12.21875 62.23046875 C-9.56640625 59.35546875 -9.56640625 59.35546875 -6.80981445 58.86962891 C-3.2949446 58.76370486 0.17024117 58.83407906 3.68359375 58.98046875 C4.905625 59.00753906 6.12765625 59.03460938 7.38671875 59.0625 C10.40412116 59.13322037 13.41796945 59.23187759 16.43359375 59.35546875 C14.46097284 69.71359151 8.96076856 76.97853418 0.49609375 83.10546875 C-11.82968299 91.35966759 -25.09665995 91.56715658 -39.56640625 90.35546875 C-44.05726621 89.30200109 -47.63944007 87.74442571 -51.56640625 85.35546875 C-52.37980469 84.89785156 -53.19320312 84.44023437 -54.03125 83.96875 C-64.63591081 77.5283154 -69.62453553 68.66496324 -73.6796875 57.2109375 C-76.85236887 43.41606301 -75.96776629 27.09470861 -69.05859375 14.63671875 C-62.46344469 4.4525816 -53.24498091 -3.41636293 -41.22167969 -6.18432617 C-26.99855708 -8.64944075 -12.28569967 -7.87257163 0 0 Z " fill="#17B8A7" transform="translate(733.56640625,53.64453125)"/>
<path d="M0 0 C8.17005566 6.33072376 15.20439079 16.74856501 17 27 C12.64698737 27.26260827 8.29601643 27.42161414 3.9375 27.5625 C2.70837891 27.63791016 1.47925781 27.71332031 0.21289062 27.79101562 C-8.79591545 28.00955809 -8.79591545 28.00955809 -12.31665039 25.05761719 C-14.1640625 22.64453125 -14.1640625 22.64453125 -15.63525391 20.22973633 C-19.12834421 14.52268914 -25.08443593 12.15095642 -31.3359375 10.5078125 C-40.37979152 8.78391071 -48.72932182 9.89774362 -57 14 C-65.56008439 19.96106155 -71.15220008 27.06944529 -73.3125 37.3125 C-75.19211856 50.3071706 -74.77923397 64.17838023 -66.66015625 75.0703125 C-64.01520434 78.14468013 -61.34918662 80.70441167 -58 83 C-57.401875 83.41378906 -56.80375 83.82757813 -56.1875 84.25390625 C-48.04162502 88.82005102 -36.71035293 88.31345141 -27.82421875 86.26953125 C-19.36119655 83.12318764 -15.54890203 78.96057855 -11 71 C-1.76 71 7.48 71 17 71 C14.51680035 83.41599823 6.16139083 93.76612286 -4.1875 100.8125 C-19.09920171 109.70904418 -37.50315581 112.94224101 -54.55078125 109.12890625 C-62.85436177 106.88032431 -70.13501523 103.19360776 -77 98 C-78.09054687 97.18208984 -78.09054687 97.18208984 -79.203125 96.34765625 C-90.72473287 87.00284071 -97.84206914 72.54113412 -100 58 C-101.64224415 39.80497755 -97.71826473 22.46869431 -85.91796875 8.15234375 C-63.68983142 -16.7920629 -26.90694784 -18.91832669 0 0 Z " fill="#17B9A7" transform="translate(441,34)"/>
<path d="M0 0 C8.63587722 6.62635056 15.79399083 14.85609552 20 25 C20 25.99 20 26.98 20 28 C15.41714498 28.17406637 10.83513707 28.28078485 6.25 28.375 C4.94804688 28.42527344 3.64609375 28.47554687 2.3046875 28.52734375 C-1.22460177 28.58192039 -4.51594648 28.57162059 -8 28 C-10.703125 25.171875 -10.703125 25.171875 -12 22 C-17.61650914 15.41815336 -25.42566832 12.75349587 -33.83203125 11.6171875 C-44.26357797 11.16948163 -53.34399604 15.03503678 -61 22 C-69.83209553 31.32276751 -71.5110806 42.81596736 -71.3125 55.21484375 C-70.48819622 65.1992233 -66.50206296 74.89014112 -59.08203125 81.78125 C-51.7757047 87.54717115 -45.38732206 89.56930839 -36.1875 89.5 C-35.3003833 89.49355469 -34.4132666 89.48710938 -33.49926758 89.48046875 C-25.441051 89.2552506 -19.81311122 87.69103422 -13.92578125 81.9921875 C-11.33087854 79.13937357 -9.13906342 76.20859513 -7 73 C-4.29443359 72.65942383 -4.29443359 72.65942383 -0.8984375 72.70703125 C0.31328125 72.71669922 1.525 72.72636719 2.7734375 72.73632812 C4.67996094 72.7740332 4.67996094 72.7740332 6.625 72.8125 C7.90375 72.82603516 9.1825 72.83957031 10.5 72.85351562 C13.66708282 72.88896804 16.83333541 72.93838559 20 73 C17.68600016 85.23603531 10.02418353 94.54155756 0.125 101.8125 C-15.63129206 112.15409107 -33.46783895 114.56078079 -51.875 110.9375 C-63.44997199 107.7753412 -72.65581424 101.46577681 -81 93 C-81.57363281 92.43667969 -82.14726563 91.87335938 -82.73828125 91.29296875 C-94.95312647 78.32061375 -96.70166824 61.14780232 -96.28125 44.1953125 C-95.64164044 29.31906009 -89.2825515 16.69730987 -79 6 C-57.16495567 -13.14765426 -24.58229069 -16.85106645 0 0 Z " fill="#16B8A7" transform="translate(902,32)"/>
<path d="M0 0 C9.82498379 5.38194505 15.55495219 12.51673319 18.74609375 23.30859375 C18.92527344 23.95054688 19.10445312 24.5925 19.2890625 25.25390625 C19.7840625 26.73890625 19.7840625 26.73890625 20.2890625 28.25390625 C20.37838558 30.35480646 20.40665519 32.45848502 20.40258789 34.5612793 C20.40247459 36.51296272 20.40247459 36.51296272 20.40235901 38.5040741 C20.39725235 39.92459145 20.39203635 41.34510842 20.38671875 42.765625 C20.38485341 44.21865287 20.38343006 45.67168136 20.38243103 47.12471008 C20.37861496 50.94696797 20.36879243 54.7691878 20.35772705 58.59143066 C20.34749337 62.49258916 20.34292921 66.39375382 20.33789062 70.29492188 C20.32716935 77.94793602 20.30957991 85.60091095 20.2890625 93.25390625 C12.3690625 93.25390625 4.4490625 93.25390625 -3.7109375 93.25390625 C-3.71504639 91.48869629 -3.71915527 89.72348633 -3.72338867 87.90478516 C-3.74287541 82.03728063 -3.785325 76.17017671 -3.84302807 70.30294228 C-3.8771509 66.74956643 -3.90238481 63.19661376 -3.90649414 59.64306641 C-3.91163715 55.546693 -3.95689813 51.45157735 -4.00390625 47.35546875 C-3.9999736 46.09465485 -3.99604095 44.83384094 -3.99198914 43.53482056 C-4.11774569 35.84919624 -5.07604344 29.57966112 -9.7109375 23.25390625 C-15.37821213 18.58086203 -21.53345768 17.84619179 -28.62890625 17.90625 C-34.50075665 18.56860068 -38.02259367 21.56556242 -42.0859375 25.62890625 C-46.51007663 32.77559253 -46.04853473 40.46591557 -46.125 48.625 C-46.14436615 49.90246597 -46.1637323 51.17993195 -46.1836853 52.49610901 C-46.23316756 55.87111156 -46.27450822 59.24601012 -46.31182861 62.62115479 C-46.35203492 66.0737059 -46.40305087 69.52609602 -46.453125 72.97851562 C-46.54897002 79.73688388 -46.63307419 86.49530788 -46.7109375 93.25390625 C-54.6309375 93.25390625 -62.5509375 93.25390625 -70.7109375 93.25390625 C-70.7109375 61.90390625 -70.7109375 30.55390625 -70.7109375 -1.74609375 C-62.7909375 -1.74609375 -54.8709375 -1.74609375 -46.7109375 -1.74609375 C-46.7109375 1.88390625 -46.7109375 5.51390625 -46.7109375 9.25390625 C-46.0509375 9.25390625 -45.3909375 9.25390625 -44.7109375 9.25390625 C-44.48019531 8.65835938 -44.24945312 8.0628125 -44.01171875 7.44921875 C-42.36959769 4.67783126 -40.68079048 3.72239776 -37.8984375 2.12890625 C-37.04636719 1.63132812 -36.19429687 1.13375 -35.31640625 0.62109375 C-24.96144483 -4.81254418 -10.71860458 -4.76198067 0 0 Z " fill="#16B8A6" transform="translate(1122.7109375,49.74609375)"/>
<path d="M0 0 C7.96231178 5.35354193 13.2338726 12.87945714 15.56126404 22.26286316 C16.06821055 25.42554436 16.11965122 28.42241049 16.11352539 31.6262207 C16.11367142 32.27068649 16.11381744 32.91515228 16.1139679 33.57914734 C16.11327506 35.69472704 16.10551231 37.81021706 16.09765625 39.92578125 C16.09578983 41.39837089 16.09436699 42.87096115 16.09336853 44.34355164 C16.08956096 48.20852388 16.07974579 52.0734582 16.06866455 55.93841553 C16.0584125 59.88667284 16.05386279 63.83493632 16.04882812 67.78320312 C16.03812187 75.52215466 16.02053941 83.26106717 16 91 C8.08 91 0.16 91 -8 91 C-8.0093457 89.19402344 -8.01869141 87.38804687 -8.02832031 85.52734375 C-8.06395367 79.5360939 -8.11781831 73.54523608 -8.18390274 67.55426025 C-8.22328102 63.9246652 -8.25551619 60.29530923 -8.27099609 56.66552734 C-8.28622717 53.15740773 -8.32078433 49.64994583 -8.36830902 46.14212036 C-8.39019599 44.16377797 -8.39246818 42.18524967 -8.39434814 40.20678711 C-8.5296125 31.8333848 -9.21918726 25.78081274 -15.375 19.625 C-21.63458668 15.75001777 -27.775734 15.19958417 -35 16 C-40.07564143 17.35464754 -43.06701579 19.61658252 -45.9375 24 C-48.59235714 28.60775205 -49.12619246 32.57972432 -49.20532227 37.87011719 C-49.22526749 39.05103943 -49.24521271 40.23196167 -49.26576233 41.44866943 C-49.28247482 42.71857727 -49.29918732 43.98848511 -49.31640625 45.296875 C-49.33718735 46.60078186 -49.35796844 47.90468872 -49.37937927 49.24810791 C-49.43445236 52.70695808 -49.4839264 56.1658664 -49.53222656 59.62481689 C-49.58254972 63.15748238 -49.63817922 66.69006389 -49.69335938 70.22265625 C-49.80076024 77.14836615 -49.90175433 84.07415424 -50 91 C-57.92 91 -65.84 91 -74 91 C-74 59.65 -74 28.3 -74 -4 C-66.08 -4 -58.16 -4 -50 -4 C-49.67 -0.7 -49.34 2.6 -49 6 C-47.88625 4.9275 -46.7725 3.855 -45.625 2.75 C-33.1962701 -7.86934807 -13.89074554 -8.60805292 0 0 Z " fill="#16B8A6" transform="translate(1240,52)"/>
<path d="M0 0 C8.8997146 6.51993744 15.07911072 15.34425466 17.125 26.25 C12.91760571 26.48309664 8.71187362 26.62467326 4.5 26.75 C3.31019531 26.81703125 2.12039063 26.8840625 0.89453125 26.953125 C-7.80173018 27.14745486 -7.80173018 27.14745486 -10.94213867 24.52148438 C-12.51953125 22.375 -12.51953125 22.375 -13.73364258 20.2265625 C-15.66936797 16.87434159 -18.27028377 15.29007045 -21.875 14.25 C-28.93861661 13.30156043 -35.33425739 13.26002133 -41.22265625 17.6171875 C-48.17878042 24.49108798 -49.09556698 31.52234746 -49.1875 40.875 C-49.23100586 42.31552734 -49.23100586 42.31552734 -49.27539062 43.78515625 C-49.34629422 51.82453361 -47.65981395 57.87890943 -42.5 64.125 C-36.73902103 68.78864964 -32.19315905 69.85417786 -24.85546875 69.671875 C-19.317924 68.88805477 -15.63776334 66.18335334 -11.9375 62.125 C-10.72874422 60.13221204 -10.72874422 60.13221204 -9.875 57.25 C-1.295 57.25 7.285 57.25 16.125 57.25 C14.25033937 68.49796377 9.01686523 76.11440097 0.125 83.25 C-12.39784097 90.92880672 -27.56735899 92.71712259 -42.0234375 89.81933594 C-45.5697785 88.75581415 -48.71966407 87.16299112 -51.875 85.25 C-53.5765625 84.26 -53.5765625 84.26 -55.3125 83.25 C-65.38734623 75.38670538 -72.17762629 64.80919265 -74.875 52.25 C-76.2177733 35.74592707 -74.68781045 20.50241204 -63.875 7.25 C-46.98298529 -9.3581153 -20.38002994 -12.45257255 0 0 Z " fill="#16B8A6" transform="translate(1453.875,53.75)"/>
<path d="M0 0 C7.92 0 15.84 0 24 0 C24 7.59 24 15.18 24 23 C30.93 23 37.86 23 45 23 C45 29.27 45 35.54 45 42 C38.07 42 31.14 42 24 42 C24.06887538 48.88715756 24.15684333 55.77370795 24.26245117 62.66040039 C24.29568906 65.00277978 24.3237245 67.34523904 24.34643555 69.68774414 C24.38000168 73.05649833 24.43232019 76.42452131 24.48828125 79.79296875 C24.49467117 80.83897751 24.5010611 81.88498627 24.50764465 82.96269226 C24.57836695 89.9974983 24.57836695 89.9974983 28 96 C31.16965142 97.58482571 34.63744541 97.37852823 38.125 97.5625 C40.72375 97.706875 43.3225 97.85125 46 98 C46 104.6 46 111.2 46 118 C42.37453463 118.08170915 38.75095107 118.14084254 35.125 118.1875 C34.11179687 118.21263672 33.09859375 118.23777344 32.0546875 118.26367188 C22.23681938 118.35807445 13.9737003 116.95356392 6.69140625 110.0390625 C2.20709335 104.63303171 -0.1300482 97.75029281 -0.11352539 90.79418945 C-0.11344986 89.73331619 -0.11337433 88.67244293 -0.11329651 87.579422 C-0.10813522 86.43559555 -0.10297394 85.2917691 -0.09765625 84.11328125 C-0.0962413 82.94113571 -0.09482635 81.76899017 -0.09336853 80.56132507 C-0.08776388 76.81169093 -0.07521056 73.06211615 -0.0625 69.3125 C-0.0574856 66.77278732 -0.05292259 64.2330737 -0.04882812 61.69335938 C-0.03779294 55.46221665 -0.02052515 49.2311184 0 43 C-3.63 43 -7.26 43 -11 43 C-11 36.4 -11 29.8 -11 23 C-7.37 23 -3.74 23 0 23 C0 15.41 0 7.82 0 0 Z " fill="#15B8A6" transform="translate(1492,25)"/>
<path d="M0 0 C0 8.25 0 16.5 0 25 C-2.145 25.0825 -4.29 25.165 -6.5 25.25 C-13.99935429 25.79540758 -18.96668371 27.04650783 -24.375 32.3125 C-28.59893162 39.29823307 -28.33391517 46.55120135 -28.4140625 54.49609375 C-28.43342865 55.68477554 -28.4527948 56.87345734 -28.4727478 58.09815979 C-28.53231089 61.8778679 -28.5788363 65.65760684 -28.625 69.4375 C-28.66320114 72.00717441 -28.70225411 74.5768363 -28.7421875 77.14648438 C-28.83958919 83.43092281 -28.91934446 89.71523524 -29 96 C-36.92 96 -44.84 96 -53 96 C-53 64.65 -53 33.3 -53 1 C-45.08 1 -37.16 1 -29 1 C-28.67 5.29 -28.34 9.58 -28 14 C-27.21625 12.96875 -26.4325 11.9375 -25.625 10.875 C-18.53265464 2.54699542 -10.68787669 0 0 0 Z " fill="#17B8A7" transform="translate(648,47)"/>
<path d="M0 0 C6.21022081 3.77380156 11.12756342 9.38269026 13.4375 16.3125 C14.8403228 36.21254344 14.8403228 36.21254344 8.4375 44.3125 C3.41857832 49.8054882 -1.18557538 52.79660938 -8.7109375 53.68359375 C-17.58136252 53.86615698 -22.02974391 52.44234444 -28.49609375 46.55078125 C-34.62720047 40.26671552 -36.60956345 33.46310977 -37 24.8125 C-36.73855438 16.76452182 -33.81109787 9.62415074 -28.234375 3.78515625 C-20.62001694 -2.92188344 -9.30404144 -4.32540826 0 0 Z " fill="#FCFEFE" transform="translate(533.5625,69.6875)"/>
<path d="M0 0 C5.57186299 4.45272812 8.91462022 9.57965884 10.015625 16.7109375 C10.92660028 27.23904423 10.69121294 35.97397169 4.015625 44.7109375 C-1.2603768 49.52611205 -7.17256385 52.35133267 -14.296875 53.0234375 C-21.06792567 52.44961965 -27.0918409 50.6034716 -31.984375 45.7109375 C-37.3147949 38.55294507 -38.34720085 33.12121391 -38.359375 24.3984375 C-38.38386719 23.48642578 -38.40835938 22.57441406 -38.43359375 21.63476562 C-38.4659953 14.10140415 -36.80844577 8.9457822 -31.8359375 3.25 C-22.13847813 -5.08641244 -11.21446417 -7.28498656 0 0 Z " fill="#FCFEFD" transform="translate(999.984375,71.2890625)"/>
<path d="M0 0 C1.25477646 -0.00637985 2.50955292 -0.0127597 3.80235291 -0.01933289 C5.18276939 -0.02086145 6.56318638 -0.02197547 7.94360352 -0.02270508 C9.34985896 -0.025916 10.75611405 -0.02927995 12.16236877 -0.03279114 C15.11395034 -0.03878864 18.06550261 -0.04063041 21.01708984 -0.04003906 C24.80481022 -0.03993742 28.59234324 -0.05358917 32.38001919 -0.07081127 C35.28559741 -0.08191375 38.1911301 -0.08395881 41.09672737 -0.08342934 C42.49341541 -0.08461212 43.89010452 -0.08905054 45.28677177 -0.0967617 C47.23803178 -0.10652558 49.1893464 -0.10242867 51.140625 -0.09765625 C52.2523558 -0.09908127 53.36408661 -0.10050629 54.50950623 -0.10197449 C57.13500977 0.14526367 57.13500977 0.14526367 59.13500977 2.14526367 C59.37792969 4.46777344 59.37792969 4.46777344 59.36547852 7.33666992 C59.36354492 8.3634082 59.36161133 9.39014648 59.35961914 10.44799805 C59.34737305 11.5237207 59.33512695 12.59944336 59.32250977 13.70776367 C59.32154297 15.32714844 59.32154297 15.32714844 59.32055664 16.97924805 C59.27515574 25.00511769 59.27515574 25.00511769 58.13500977 26.14526367 C56.11006745 26.23935846 54.08181107 26.26269489 52.0546875 26.25878906 C50.10277748 26.25867577 50.10277748 26.25867577 48.11143494 26.25856018 C46.68049075 26.25345276 45.24954694 26.24823675 43.81860352 26.24291992 C42.36271717 26.2410557 40.90683019 26.23963182 39.45094299 26.2386322 C35.61221597 26.23480733 31.77352657 26.22497731 27.93481445 26.21392822 C24.02043161 26.20371345 20.10604271 26.19913444 16.19165039 26.1940918 C8.50608633 26.18335501 0.82055331 26.16627896 -6.86499023 26.14526367 C-6.89385775 21.99944481 -6.91174351 17.85365151 -6.92749023 13.70776367 C-6.93586914 12.52375977 -6.94424805 11.33975586 -6.95288086 10.11987305 C-6.95610352 8.99516602 -6.95932617 7.87045898 -6.96264648 6.71166992 C-6.9678833 5.66954346 -6.97312012 4.62741699 -6.97851562 3.55371094 C-6.75995753 -1.08301086 -4.03097774 0.01383094 0 0 Z " fill="#18B9A7" transform="translate(167.864990234375,231.854736328125)"/>
<path d="M0 0 C0.78955078 -0.01224609 1.57910156 -0.02449219 2.39257812 -0.03710938 C4.45057435 -0.04237279 6.50812009 0.06543715 8.5625 0.1875 C10.5625 2.1875 10.5625 2.1875 10.7578125 5.6640625 C10.74451493 7.04700968 10.72066232 8.42988654 10.6875 9.8125 C10.67847656 10.51890625 10.66945312 11.2253125 10.66015625 11.953125 C10.63657603 13.69806098 10.60070461 15.44282295 10.5625 17.1875 C12.16931641 17.17009766 12.16931641 17.17009766 13.80859375 17.15234375 C15.20572743 17.14296701 16.60286299 17.13386669 18 17.125 C18.70705078 17.11662109 19.41410156 17.10824219 20.14257812 17.09960938 C21.94943559 17.09096412 23.75637603 17.13529989 25.5625 17.1875 C27.4480253 19.0730253 26.69496689 21.76518831 26.69921875 24.26953125 C26.69535156 25.06746094 26.69148438 25.86539063 26.6875 26.6875 C26.69330078 27.88439453 26.69330078 27.88439453 26.69921875 29.10546875 C26.68910767 35.06089233 26.68910767 35.06089233 25.5625 36.1875 C23.03200598 36.26063567 20.52945163 36.27997527 18 36.25 C17.28908203 36.24548828 16.57816406 36.24097656 15.84570312 36.23632812 C14.08459987 36.22450864 12.32353964 36.20657263 10.5625 36.1875 C10.58570313 37.24710938 10.60890625 38.30671875 10.6328125 39.3984375 C10.65156944 40.7864513 10.66976972 42.1744727 10.6875 43.5625 C10.70425781 44.26117188 10.72101563 44.95984375 10.73828125 45.6796875 C10.75594267 47.51647486 10.66553261 49.35351963 10.5625 51.1875 C8.00301001 53.74698999 6.29042805 53.44818731 2.796875 53.4609375 C2.05953125 53.45320313 1.3221875 53.44546875 0.5625 53.4375 C-0.54351562 53.44910156 -0.54351562 53.44910156 -1.671875 53.4609375 C-7.1841804 53.4408196 -7.1841804 53.4408196 -9.4375 51.1875 C-9.58247985 48.60685871 -9.62427545 46.13806116 -9.5625 43.5625 C-9.55347656 42.85609375 -9.54445312 42.1496875 -9.53515625 41.421875 C-9.51157603 39.67693902 -9.47570461 37.93217705 -9.4375 36.1875 C-10.49710938 36.21070313 -11.55671875 36.23390625 -12.6484375 36.2578125 C-14.0364513 36.27656944 -15.4244727 36.29476972 -16.8125 36.3125 C-17.51117188 36.32925781 -18.20984375 36.34601563 -18.9296875 36.36328125 C-20.76647486 36.38094267 -22.60351963 36.29053261 -24.4375 36.1875 C-26.4375 34.1875 -26.4375 34.1875 -26.66796875 30.52734375 C-26.66397733 29.05983136 -26.64922158 27.59231791 -26.625 26.125 C-26.62435547 25.37927734 -26.62371094 24.63355469 -26.62304688 23.86523438 C-26.57778159 18.32778159 -26.57778159 18.32778159 -25.4375 17.1875 C-22.74095146 17.11430379 -20.07058542 17.09507463 -17.375 17.125 C-16.61638672 17.12951172 -15.85777344 17.13402344 -15.07617188 17.13867188 C-13.19658129 17.1504932 -11.31703101 17.16842922 -9.4375 17.1875 C-9.44910156 16.04410156 -9.46070313 14.90070312 -9.47265625 13.72265625 C-9.48203288 12.23177246 -9.49113321 10.74088691 -9.5 9.25 C-9.50837891 8.49525391 -9.51675781 7.74050781 -9.52539062 6.96289062 C-9.53402441 5.03755687 -9.48974333 3.11214419 -9.4375 1.1875 C-7.33618615 -0.91381385 -2.89603678 0.00235259 0 0 Z " fill="#FBFEFD" transform="translate(150.4375,45.8125)"/>
<path d="M0 0 C8.45767731 -0.02255381 16.91533141 -0.0409167 25.37303066 -0.05181217 C29.29988658 -0.05704031 33.22672094 -0.06413669 37.15356445 -0.07543945 C40.94014257 -0.0862708 44.7266999 -0.09227736 48.51329231 -0.09487724 C49.96104319 -0.09673105 51.40879288 -0.10035081 52.85653496 -0.10573006 C54.87757135 -0.11294367 56.89862848 -0.11340808 58.91967773 -0.11352539 C60.64842384 -0.11685631 60.64842384 -0.11685631 62.41209412 -0.12025452 C65 0 65 0 66 1 C66.09932153 2.69558726 66.13080007 4.39525747 66.1328125 6.09375 C66.13410156 7.12371094 66.13539063 8.15367187 66.13671875 9.21484375 C66.13285156 10.29894531 66.12898438 11.38304687 66.125 12.5 C66.12886719 13.58410156 66.13273437 14.66820312 66.13671875 15.78515625 C66.13542969 16.81511719 66.13414062 17.84507812 66.1328125 18.90625 C66.13168457 19.85822266 66.13055664 20.81019531 66.12939453 21.79101562 C66 24 66 24 65 25 C62.97505769 25.09409479 60.9468013 25.11743122 58.91967773 25.11352539 C56.96776772 25.11341209 56.96776772 25.11341209 54.97642517 25.11329651 C53.54548098 25.10818909 52.11453718 25.10297308 50.68359375 25.09765625 C49.2277074 25.09579203 47.77182043 25.09436815 46.31593323 25.09336853 C42.47720621 25.08954365 38.63851681 25.07971364 34.79980469 25.06866455 C30.88542184 25.05844978 26.97103294 25.05387077 23.05664062 25.04882812 C15.37107459 25.03809133 7.68554735 25.02049479 0 25 C0 16.75 0 8.5 0 0 Z " fill="#17B9A7" transform="translate(75,233)"/>
<path d="M0 0 C23.48815166 0 23.48815166 0 29.859375 5.6484375 C34.56837745 10.78349256 36.52168101 15.55546799 36.30078125 22.53125 C35.61729956 28.14112568 34.14012186 33.09166029 29.8359375 36.9296875 C19.43259819 44.01209114 15.30415939 42 0 42 C0 28.14 0 14.28 0 0 Z " fill="#787878" transform="translate(354,197)"/>
<path d="M0 0 C2.31 0 4.62 0 7 0 C7 14.85 7 29.7 7 45 C4.69 45 2.38 45 0 45 C0 43.68 0 42.36 0 41 C-0.7425 41.66 -1.485 42.32 -2.25 43 C-7.01960684 46.16838169 -12.5196379 45.85701136 -18 45 C-21.88947999 43.28650589 -23.70887564 40.48520726 -25.875 36.875 C-27.63399192 32.0614712 -27.68468923 27.03626965 -27 22 C-25.3125 18.5625 -25.3125 18.5625 -23 16 C-22.34 15.21625 -21.68 14.4325 -21 13.625 C-16.26917095 11.0624676 -11.26397336 11.22300393 -6 12 C-4.35 12.99 -2.7 13.98 -1 15 C-0.67 10.05 -0.34 5.1 0 0 Z " fill="#797979" transform="translate(676,194)"/>
<path d="M0 0 C2.31 0 4.62 0 7 0 C7.33 4.95 7.66 9.9 8 15 C9.65 14.01 11.3 13.02 13 12 C18.19249857 11.16103735 22.67133951 11.37190595 27.4375 13.625 C32.26181262 18.09631414 34.25398569 21.25444976 34.5625 27.875 C34.31576917 34.96851122 31.96444196 39.20993698 26.875 44 C21.23815417 45.96064203 15.22712097 46.04805693 9.8125 43.5 C9.214375 43.005 8.61625 42.51 8 42 C7.67 42.99 7.34 43.98 7 45 C4.69 45 2.38 45 0 45 C0 30.15 0 15.3 0 0 Z " fill="#797979" transform="translate(508,194)"/>
<path d="M0 0 C2.875 1.52734375 2.875 1.52734375 5 3 C5.33 2.01 5.66 1.02 6 0 C8.31 0 10.62 0 13 0 C13 10.89 13 21.78 13 33 C10.69 33 8.38 33 6 33 C6 31.68 6 30.36 6 29 C5.2575 29.66 4.515 30.32 3.75 31 C-1.01960684 34.16838169 -6.5196379 33.85701136 -12 33 C-15.88947999 31.28650589 -17.70887564 28.48520726 -19.875 24.875 C-21.63399192 20.0614712 -21.68468923 15.03626965 -21 10 C-19.3125 6.5625 -19.3125 6.5625 -17 4 C-16.34 3.21625 -15.68 2.4325 -15 1.625 C-10.26917095 -0.9375324 -5.26397336 -0.77699607 0 0 Z " fill="#787878" transform="translate(762,206)"/>
<path d="M0 0 C1.52947266 -0.01160156 1.52947266 -0.01160156 3.08984375 -0.0234375 C6.41157205 0.42178758 8.33436865 1.47585884 11.0625 3.375 C11.3925 2.385 11.7225 1.395 12.0625 0.375 C14.3725 0.375 16.6825 0.375 19.0625 0.375 C19.0625 11.265 19.0625 22.155 19.0625 33.375 C16.7525 33.375 14.4425 33.375 12.0625 33.375 C11.7325 32.385 11.4025 31.395 11.0625 30.375 C10.464375 30.87 9.86625 31.365 9.25 31.875 C4.53048329 34.09594904 0.19190053 34.03126154 -4.9375 33.375 C-9.77904647 31.26232518 -12.15503845 28.37748656 -14.23828125 23.6484375 C-15.76886717 18.67189558 -16.02180304 13.90789762 -13.94921875 9.06640625 C-10.37702966 3.03902838 -7.28320586 -0.05510622 0 0 Z " fill="#777777" transform="translate(599.9375,205.625)"/>
<path d="M0 0 C3.1875 1.5 3.1875 1.5 5 3 C5.33 2.01 5.66 1.02 6 0 C8.31 0 10.62 0 13 0 C13 10.89 13 21.78 13 33 C10.69 33 8.38 33 6 33 C5.67 32.01 5.34 31.02 5 30 C4.401875 30.495 3.80375 30.99 3.1875 31.5 C-1.5667268 33.7372832 -5.84694338 34.01477791 -11 33 C-15.13408274 30.61956849 -18.01105858 27.60702981 -20.5 23.5625 C-21.81285275 16.83412966 -21.31067527 12.05054446 -18 6 C-12.35255865 -0.33615371 -8.26040435 -0.714156 0 0 Z " fill="#777777" transform="translate(415,206)"/>
<path d="M0 0 C4.90498706 2.23736252 7.729879 5.11050861 10 10 C10.74320523 15.45269957 10.9444196 20.97530833 8.4375 26 C4.74590544 30.543501 1.82324567 32.63240962 -3.91015625 33.37890625 C-8.62318761 33.55995206 -12.13723413 33.3697568 -16.5 31.5 C-21.08513203 26.91486797 -23.20239309 22.45509135 -23.5 15.9375 C-23.20916469 9.62637382 -21.05006833 6.05006833 -16.5625 1.5625 C-11.09030025 -0.83758761 -5.88020903 -0.73408979 0 0 Z " fill="#777777" transform="translate(570,206)"/>
<path d="M0 0 C21.64705882 0 21.64705882 0 27.375 5.125 C29.64717451 9.14500106 29.6652183 12.48308564 29 17 C27.69393422 20.33772367 26.45870214 21.64993784 23.625 23.8125 C18.0501142 25.63875569 12.84877923 25.17904426 7 25 C7 30.61 7 36.22 7 42 C4.69 42 2.38 42 0 42 C0 28.14 0 14.28 0 0 Z " fill="#787878" transform="translate(707,197)"/>
<path d="M0 0 C3.78275115 3.29138347 6.70968228 7.09679266 8 12 C8 13.65 8 15.3 8 17 C-6.85 17 -21.7 17 -37 17 C-36.01037959 9.08303668 -35.29953659 6.33502456 -30 1 C-20.7810054 -5.89437742 -9.78089716 -5.67923061 0 0 Z " fill="#F5FCFB" transform="translate(1335,70)"/>
<path d="M0 0 C3.99893634 2.37395051 7.20152312 5.22885344 9.3359375 9.38671875 C9.8309375 13.84171875 9.8309375 13.84171875 10.3359375 18.38671875 C-4.5140625 18.38671875 -19.3640625 18.38671875 -34.6640625 18.38671875 C-33.63658444 11.19437232 -32.4792243 7.61209718 -27.6640625 2.38671875 C-18.97315366 -4.06040984 -9.71085564 -4.36529 0 0 Z " fill="#F5FCFB" transform="translate(717.6640625,68.61328125)"/>
<path d="M0 0 C4.56545245 2.00239142 6.81417987 4.6867019 9.3359375 8.828125 C10 11 10 11 10 19 C1.42 19 -7.16 19 -16 19 C-13.72115687 24.66341747 -13.72115687 24.66341747 -11.1875 26.375 C-8.25153558 27.21384698 -6.04027096 27.38003387 -3 27 C-2.38125 26.34 -1.7625 25.68 -1.125 25 C1.35373656 22.66707147 1.97807709 22.72703914 5.25 22.75 C6.4875 22.8325 7.725 22.915 9 23 C6.91456751 28.09772386 5.07848454 30.72343797 0 33 C-5.42887353 33.88360572 -10.58766162 34.28928958 -15.55078125 31.63671875 C-19.55209359 28.3376477 -22.12803588 25.23178474 -23 20 C-23.49861832 14.51519852 -22.60441437 10.84959918 -20 6 C-13.9069766 -0.83607504 -8.90015177 -0.75884363 0 0 Z " fill="#797979" transform="translate(843,206)"/>
<path d="M0 0 C2.31 0 4.62 0 7 0 C7.33 4.62 7.66 9.24 8 14 C8.99 13.34 9.98 12.68 11 12 C15.67666844 11.35889827 20.77883619 10.88109913 25.0859375 13.05078125 C27.20116804 14.79971577 28.76961606 16.53923211 30 19 C30.08510205 20.9593604 30.10717656 22.92162794 30.09765625 24.8828125 C30.09443359 26.04941406 30.09121094 27.21601563 30.08789062 28.41796875 C30.07951172 29.64128906 30.07113281 30.86460937 30.0625 32.125 C30.05798828 33.35605469 30.05347656 34.58710938 30.04882812 35.85546875 C30.0370133 38.90369392 30.02054028 41.95182314 30 45 C28.02 45 26.04 45 24 45 C23.99383667 44.03960815 23.99383667 44.03960815 23.98754883 43.05981445 C23.95453962 40.14312095 23.88388974 37.22849616 23.8125 34.3125 C23.80669922 33.30509766 23.80089844 32.29769531 23.79492188 31.25976562 C23.65141155 26.42825148 23.57303122 23.7897237 20.67578125 19.796875 C18.03546619 17.67239123 18.03546619 17.67239123 14.375 17.9375 C10.61711481 19.12053793 9.93033328 19.69941906 8 23 C7.50142674 25.50359737 7.50142674 25.50359737 7.48828125 28.203125 C7.45283203 29.1828125 7.41738281 30.1625 7.38085938 31.171875 C7.35830078 32.18765625 7.33574219 33.2034375 7.3125 34.25 C7.27833984 35.28125 7.24417969 36.3125 7.20898438 37.375 C7.12661907 39.91655812 7.05743166 42.45777626 7 45 C4.69 45 2.38 45 0 45 C0 30.15 0 15.3 0 0 Z " fill="#777777" transform="translate(469,194)"/>
<path d="M0 0 C12.75862069 0 12.75862069 0 17 3 C21.04520719 7.37319696 22.37715776 10.79366599 22.27734375 16.8046875 C21.63110946 21.9199505 19.50511069 25.79591145 15.5 29 C12 30 12 30 0 30 C0 20.1 0 10.2 0 0 Z " fill="#FDFDFD" transform="translate(361,203)"/>
<path d="M0 0 C2.31 0 4.62 0 7 0 C7 0.99 7 1.98 7 3 C7.598125 2.505 8.19625 2.01 8.8125 1.5 C13.52017687 -0.71537735 17.88568212 -0.80989198 23 0 C26.92647453 1.95547743 29.40053399 4.94365973 31 9 C31.22705078 11.65722656 31.22705078 11.65722656 31.1953125 14.640625 C31.18886719 15.71054688 31.18242188 16.78046875 31.17578125 17.8828125 C31.15902344 18.99398437 31.14226563 20.10515625 31.125 21.25 C31.11597656 22.37664062 31.10695313 23.50328125 31.09765625 24.6640625 C31.07410658 27.44292365 31.0412168 30.2213539 31 33 C28.69 33 26.38 33 24 33 C23.99589111 32.32420898 23.99178223 31.64841797 23.98754883 30.95214844 C23.95461055 27.883882 23.8839674 24.81760074 23.8125 21.75 C23.80669922 20.68652344 23.80089844 19.62304688 23.79492188 18.52734375 C23.74261289 12.37200014 23.74261289 12.37200014 20.67578125 7.265625 C16.98845054 5.52154449 14.87298842 5.85244787 11 7 C8.14229755 9.95701769 7.60604998 12.15188086 7.48828125 16.203125 C7.45283203 17.1828125 7.41738281 18.1625 7.38085938 19.171875 C7.35830078 20.18765625 7.33574219 21.2034375 7.3125 22.25 C7.27833984 23.28125 7.24417969 24.3125 7.20898438 25.375 C7.12661907 27.91655812 7.05743166 30.45777626 7 33 C4.69 33 2.38 33 0 33 C0 22.11 0 11.22 0 0 Z " fill="#7A7A7A" transform="translate(783,206)"/>
<path d="M0 0 C1.13050781 -0.03738281 2.26101563 -0.07476562 3.42578125 -0.11328125 C7.35251958 0.39931094 8.94410345 1.50378449 11.6875 4.3125 C12.5 7.5625 12.5 7.5625 12.6875 10.3125 C10.3775 10.3125 8.0675 10.3125 5.6875 10.3125 C5.3575 9.3225 5.0275 8.3325 4.6875 7.3125 C1.97870665 5.95810332 -0.32183268 6.24748549 -3.3125 6.3125 C-3.6425 7.9625 -3.9725 9.6125 -4.3125 11.3125 C-3.26449219 11.69921875 -2.21648437 12.0859375 -1.13671875 12.484375 C0.24243518 13.00976697 1.62132798 13.53584476 3 14.0625 C3.69029297 14.31515625 4.38058594 14.5678125 5.09179688 14.828125 C9.01664532 16.34497464 11.67725396 17.52367196 13.6875 21.3125 C14.1875 24.25 14.1875 24.25 13.6875 27.3125 C11.514865 29.88535724 9.70756162 31.80246919 6.6875 33.3125 C4.75390414 33.46101844 2.81407903 33.53380833 0.875 33.5625 C-0.16269531 33.58828125 -1.20039063 33.6140625 -2.26953125 33.640625 C-5.73832145 33.26658344 -7.53360993 32.38818054 -10.3125 30.3125 C-12.3125 27.3125 -12.3125 27.3125 -12.3125 23.3125 C-9 23.0625 -9 23.0625 -5.3125 23.3125 C-4.2864266 24.62587396 -3.28522675 25.95914105 -2.3125 27.3125 C0.81373255 27.63150332 2.85866253 27.72691874 5.6875 26.3125 C5.6875 24.9925 5.6875 23.6725 5.6875 22.3125 C4.87925781 22.07015625 4.07101562 21.8278125 3.23828125 21.578125 C-7.56408684 18.19016878 -7.56408684 18.19016878 -11.3125 14.3125 C-12.73912219 11.45925563 -12.62283868 9.47795451 -12.3125 6.3125 C-8.66152175 0.83603263 -6.42061674 0.13815597 0 0 Z " fill="#777777" transform="translate(448.3125,205.6875)"/>
<path d="M0 0 C3.81357279 3.23324649 5.83136779 5.24622504 6.3125 10.25 C5.94713599 14.63436813 4.73973233 16.61562477 2 20 C-1.51108482 21.75554241 -5.1775105 21.66564041 -9 21 C-12.47493034 18.30515607 -13.59296156 16.80971049 -14.54296875 12.5859375 C-14.8414998 8.85711571 -14.76815761 6.16012073 -12.66796875 2.98828125 C-8.59436414 -0.95658642 -5.54135468 -1.94973591 0 0 Z " fill="#FBFBFB" transform="translate(762,212)"/>
<path d="M0 0 C3.81357279 3.23324649 5.83136779 5.24622504 6.3125 10.25 C5.94713599 14.63436813 4.73973233 16.61562477 2 20 C-1.51108482 21.75554241 -5.1775105 21.66564041 -9 21 C-12.47493034 18.30515607 -13.59296156 16.80971049 -14.54296875 12.5859375 C-14.8414998 8.85711571 -14.76815761 6.16012073 -12.66796875 2.98828125 C-8.59436414 -0.95658642 -5.54135468 -1.94973591 0 0 Z " fill="#FBFBFB" transform="translate(670,212)"/>
<path d="M0 0 C3.02194831 0.72824 4.87055662 2.05470103 6.60546875 4.66015625 C8.08822102 8.31115431 8.16729593 11.73661061 7.3828125 15.57421875 C5.58887582 18.44451744 4.40017974 20.06553513 1.3828125 21.57421875 C-3.77153162 22.08120342 -3.77153162 22.08120342 -6.6171875 21.57421875 C-9.5546875 19.13671875 -9.5546875 19.13671875 -11.6171875 16.57421875 C-11.9471875 16.24421875 -12.2771875 15.91421875 -12.6171875 15.57421875 C-13.27852039 11.08660269 -13.35771044 6.86132646 -10.7421875 3.01171875 C-6.94829137 0.05247977 -4.72055832 -0.31705242 0 0 Z " fill="#FBFBFB" transform="translate(604.6171875,211.42578125)"/>
<path d="M0 0 C2.9375 1.9375 2.9375 1.9375 5 5 C5.81577544 9.73149754 5.59473588 13.675361 3.625 18.0625 C1.77651211 20.26646634 0.81990193 20.90344784 -2.0234375 21.23828125 C-8.41339001 21.43995749 -8.41339001 21.43995749 -11.5 19.125 C-14.65420438 14.6565438 -14.77500862 10.35766829 -14 5 C-9.64674569 -0.61340687 -6.86398991 -1.62874337 0 0 Z " fill="#FBFBFB" transform="translate(568,212)"/>
<path d="M0 0 C3.15840511 2.57828988 4.60779542 4.04659271 5.40234375 8.00390625 C5.61517919 12.49047741 4.69798875 15.47186087 2 19 C-0.37040308 21.37040308 -1.06302753 21.34465793 -4.3125 21.4375 C-8.12551521 21.36995867 -8.84527264 21.12249249 -12 18.625 C-14.80312695 14.94589588 -15.3355147 12.71911715 -15.29296875 8.0390625 C-14.83745033 4.86865433 -13.24684343 3.1807598 -11 1 C-7.49419924 -0.75290038 -3.81620942 -0.67770616 0 0 Z " fill="#FCFCFC" transform="translate(530,212)"/>
<path d="M0 0 C3.31317894 2.63701997 4.59222853 4.10942317 5.47265625 8.19140625 C5.73411478 12.15350858 5.31646946 15.24044745 3.0625 18.5625 C-0.51458102 21.40956449 -2.37760912 21.85021663 -6.84375 21.5078125 C-10.55790501 20.63310208 -11.9376634 19.15795292 -14 16 C-15.50695337 11.14921518 -15.54426095 8.05098665 -13.1875 3.5 C-9.46471871 -0.75460719 -5.42414311 -0.95390103 0 0 Z " fill="#FCFCFC" transform="translate(416,212)"/>
<path d="M0 0 C2.31 0 4.62 0 7 0 C7 14.52 7 29.04 7 44 C4.69 44 2.38 44 0 44 C0 29.48 0 14.96 0 0 Z " fill="#7C7C7C" transform="translate(859,195)"/>
<path d="M0 0 C0 2.64 0 5.28 0 8 C-1.11375 8.103125 -2.2275 8.20625 -3.375 8.3125 C-4.57125 8.539375 -5.7675 8.76625 -7 9 C-9.15749784 12.23624676 -9.28360488 13.34394066 -9.4140625 17.10546875 C-9.45273437 18.08837891 -9.49140625 19.07128906 -9.53125 20.08398438 C-9.57765625 21.62022461 -9.57765625 21.62022461 -9.625 23.1875 C-9.66367187 24.22326172 -9.70234375 25.25902344 -9.7421875 26.32617188 C-9.83648296 28.88393622 -9.92208202 31.44169287 -10 34 C-12.31 34 -14.62 34 -17 34 C-17 23.11 -17 12.22 -17 1 C-14.69 1 -12.38 1 -10 1 C-9.67 1.99 -9.34 2.98 -9 4 C-8.2575 3.34 -7.515 2.68 -6.75 2 C-4 0 -4 0 0 0 Z " fill="#787878" transform="translate(645,205)"/>
<path d="M0 0 C10.33431323 -0.36908262 10.33431323 -0.36908262 13.33203125 1.29296875 C15 3 15 3 15.4375 6.5 C15 10 15 10 13.625 11.875 C10.54766363 14.00546364 8.58466593 14.11005982 4.875 14.0625 C3.26625 14.041875 1.6575 14.02125 0 14 C0 9.38 0 4.76 0 0 Z " fill="#F9F9F9" transform="translate(714,203)"/>
<path d="M0 0 C1.77734375 1.3046875 1.77734375 1.3046875 3 3 C3 4.32 3 5.64 3 7 C-2.61 7 -8.22 7 -14 7 C-13 2 -13 2 -11.5 0.125 C-7.69603284 -1.58678522 -3.96986806 -1.15513656 0 0 Z " fill="#F9F9F9" transform="translate(842,212)"/>
</svg>
