<?xml version="1.0" encoding="UTF-8"?>
<!DOCTYPE svg PUBLIC "-//W3C//DTD SVG 1.1//EN" "http://www.w3.org/Graphics/SVG/1.1/DTD/svg11.dtd">
<svg xmlns="http://www.w3.org/2000/svg" version="1.1" width="2262px" height="405px" style="shape-rendering:geometricPrecision; text-rendering:geometricPrecision; image-rendering:optimizeQuality; fill-rule:evenodd; clip-rule:evenodd" xmlns:xlink="http://www.w3.org/1999/xlink">
<g><path style="opacity:1" fill="#fefefe" d="M -0.5,-0.5 C 753.5,-0.5 1507.5,-0.5 2261.5,-0.5C 2261.5,134.5 2261.5,269.5 2261.5,404.5C 1507.5,404.5 753.5,404.5 -0.5,404.5C -0.5,319.5 -0.5,234.5 -0.5,149.5C 7.59243,176.962 15.4258,204.629 23,232.5C 25.426,239.453 28.426,246.119 32,252.5C 39.2401,263.077 47.2401,273.077 56,282.5C 76.5587,303.727 97.7253,324.227 119.5,344C 148.167,344.667 176.833,344.667 205.5,344C 206.416,343.626 207.25,343.126 208,342.5C 208.701,323.773 206.367,305.44 201,287.5C 194.593,276.425 186.093,267.258 175.5,260C 156.67,251.093 139.004,240.426 122.5,228C 108.533,215.701 94.866,203.034 81.5,190C 75.7215,184.401 69.0548,182.734 61.5,185C 56.3991,191.231 56.2324,197.731 61,204.5C 80,225.5 99,246.5 118,267.5C 120.736,272.179 119.569,274.679 114.5,275C 93.8829,252.261 73.3829,229.428 53,206.5C 41.8289,182.987 31.8289,158.987 23,134.5C 13.0234,122.808 5.19004,123.808 -0.5,137.5C -0.5,91.5 -0.5,45.5 -0.5,-0.5 Z"/></g>
<g><path style="opacity:1" fill="#17b8a6" d="M 153.5,10.5 C 171.723,8.41128 188.056,12.9113 202.5,24C 209.636,30.1349 216.469,36.6349 223,43.5C 229.842,35.9572 237.009,28.7906 244.5,22C 263.545,9.35248 283.878,7.01915 305.5,15C 338.142,31.4485 349.642,57.2818 340,92.5C 331.872,108.423 321.539,122.756 309,135.5C 280.528,162.972 252.361,190.805 224.5,219C 223.5,219.667 222.5,219.667 221.5,219C 196.811,194.589 171.645,170.755 146,147.5C 135.127,136.074 125.46,123.74 117,110.5C 106.508,92.866 102.508,73.866 105,53.5C 112.64,29.3509 128.806,15.0176 153.5,10.5 Z"/></g>
<g><path style="opacity:1" fill="#fefefe" d="M 212.5,74.5 C 220.174,74.3336 227.841,74.5003 235.5,75C 236.333,75.8333 237.167,76.6667 238,77.5C 238.5,84.8258 238.666,92.1591 238.5,99.5C 246.223,99.1996 253.89,99.5329 261.5,100.5C 262.192,101.025 262.692,101.692 263,102.5C 263.667,109.833 263.667,117.167 263,124.5C 262.626,125.416 262.126,126.25 261.5,127C 253.92,128.396 246.253,128.896 238.5,128.5C 238.666,135.508 238.5,142.508 238,149.5C 237.167,150.333 236.333,151.167 235.5,152C 227.833,152.667 220.167,152.667 212.5,152C 211.667,151.167 210.833,150.333 210,149.5C 209.5,142.508 209.334,135.508 209.5,128.5C 202.492,128.666 195.492,128.5 188.5,128C 187.333,126.833 186.167,125.667 185,124.5C 184.333,117.167 184.333,109.833 185,102.5C 185.833,101.667 186.667,100.833 187.5,100C 194.826,99.5003 202.159,99.3337 209.5,99.5C 209.334,92.1591 209.5,84.8258 210,77.5C 211.045,76.6266 211.878,75.6266 212.5,74.5 Z"/></g>
<g><path style="opacity:1" fill="#18b8a6" d="M -0.5,149.5 C -0.5,145.5 -0.5,141.5 -0.5,137.5C 5.19004,123.808 13.0234,122.808 23,134.5C 31.8289,158.987 41.8289,182.987 53,206.5C 73.3829,229.428 93.8829,252.261 114.5,275C 119.569,274.679 120.736,272.179 118,267.5C 99,246.5 80,225.5 61,204.5C 56.2324,197.731 56.3991,191.231 61.5,185C 69.0548,182.734 75.7215,184.401 81.5,190C 94.866,203.034 108.533,215.701 122.5,228C 139.004,240.426 156.67,251.093 175.5,260C 186.093,267.258 194.593,276.425 201,287.5C 206.367,305.44 208.701,323.773 208,342.5C 207.25,343.126 206.416,343.626 205.5,344C 176.833,344.667 148.167,344.667 119.5,344C 97.7253,324.227 76.5587,303.727 56,282.5C 47.2401,273.077 39.2401,263.077 32,252.5C 28.426,246.119 25.426,239.453 23,232.5C 15.4258,204.629 7.59243,176.962 -0.5,149.5 Z"/></g>
<g><path style="opacity:1" fill="#17b8a6" d="M 436.5,126.5 C 441.407,126.551 444.907,128.884 447,133.5C 448.861,141.137 448.861,148.804 447,156.5C 439.689,181.077 432.689,205.744 426,230.5C 423.046,241.049 418.379,250.715 412,259.5C 399.906,274.265 387.073,288.431 373.5,302C 358.801,316.367 343.801,330.367 328.5,344C 299.5,344.667 270.5,344.667 241.5,344C 241,343.5 240.5,343 240,342.5C 239.548,327.355 240.881,312.355 244,297.5C 246.251,288.328 250.585,280.328 257,273.5C 262.924,267.572 269.424,262.406 276.5,258C 294.173,249.17 310.84,238.837 326.5,227C 341.5,213.333 356.5,199.667 371.5,186C 384.794,179.983 390.961,184.15 390,198.5C 389,200.5 388,202.5 387,204.5C 368.371,226.131 349.371,247.464 330,268.5C 327.564,273.397 329.064,275.564 334.5,275C 353.667,253.833 372.833,232.667 392,211.5C 396.78,204.274 400.78,196.608 404,188.5C 411.529,170.246 418.862,151.913 426,133.5C 428.998,130.262 432.498,127.929 436.5,126.5 Z"/></g>
<g><path style="opacity:1" fill="#19b8a6" d="M 665.5,203.5 C 652.344,204.496 639.01,204.829 625.5,204.5C 619.514,191.695 609.514,183.862 595.5,181C 566.771,175.78 546.271,186.28 534,212.5C 529.724,228.066 529.391,243.732 533,259.5C 544.856,289.647 566.689,301.147 598.5,294C 610.567,289.933 619.567,282.266 625.5,271C 638.829,270.5 652.163,270.333 665.5,270.5C 660.046,290.453 648.379,305.62 630.5,316C 593.433,334.726 558.099,332.06 524.5,308C 499.896,285.197 489.729,257.03 494,223.5C 503.682,175.741 532.849,150.408 581.5,147.5C 616.654,146.984 643.154,161.651 661,191.5C 662.791,195.411 664.291,199.411 665.5,203.5 Z"/></g>
<g><path style="opacity:1" fill="#19b8a6" d="M 1310.5,271.5 C 1324.01,271.171 1337.34,271.504 1350.5,272.5C 1340.22,301.154 1320.22,318.987 1290.5,326C 1252.47,333.657 1220.97,322.824 1196,293.5C 1176.96,264.754 1173.3,234.088 1185,201.5C 1201.08,166.871 1228.24,148.871 1266.5,147.5C 1307.65,147.388 1335.99,166.222 1351.5,204C 1337.83,204.667 1324.17,204.667 1310.5,204C 1301.2,187.23 1286.86,179.063 1267.5,179.5C 1239.04,181.455 1221.87,196.455 1216,224.5C 1213.15,244.128 1217.15,262.128 1228,278.5C 1245.57,296.017 1266.07,300.517 1289.5,292C 1299.02,287.645 1306.02,280.812 1310.5,271.5 Z"/></g>
<g><path style="opacity:1" fill="#16b8a6" d="M 2192.5,215.5 C 2187.36,214.512 2182.03,214.179 2176.5,214.5C 2176.5,205.167 2176.5,195.833 2176.5,186.5C 2182.03,186.821 2187.36,186.488 2192.5,185.5C 2192.5,174.167 2192.5,162.833 2192.5,151.5C 2204.5,151.5 2216.5,151.5 2228.5,151.5C 2228.5,163.167 2228.5,174.833 2228.5,186.5C 2238.83,186.5 2249.17,186.5 2259.5,186.5C 2259.5,196.167 2259.5,205.833 2259.5,215.5C 2249.17,215.5 2238.83,215.5 2228.5,215.5C 2228.03,240.565 2228.53,265.565 2230,290.5C 2231.25,293.381 2233.42,295.214 2236.5,296C 2244.16,296.5 2251.83,296.666 2259.5,296.5C 2259.5,306.5 2259.5,316.5 2259.5,326.5C 2248.16,326.667 2236.83,326.5 2225.5,326C 2205.96,322.129 2195.13,310.296 2193,290.5C 2192.5,265.502 2192.33,240.502 2192.5,215.5 Z"/></g>
<g><path style="opacity:1" fill="#18b8a6" d="M 743.5,183.5 C 764.846,181.778 782.679,188.778 797,204.5C 797.499,198.509 797.666,192.509 797.5,186.5C 809.5,186.5 821.5,186.5 833.5,186.5C 833.5,233.167 833.5,279.833 833.5,326.5C 821.5,326.5 809.5,326.5 797.5,326.5C 797.666,320.158 797.5,313.825 797,307.5C 779.088,327.106 757.254,333.273 731.5,326C 705.751,315.054 691.251,295.554 688,267.5C 683.778,237.475 693.278,212.975 716.5,194C 724.942,188.768 733.942,185.268 743.5,183.5 Z"/></g>
<g><path style="opacity:1" fill="#15b8a6" d="M 935.5,184.5 C 939.167,184.5 942.833,184.5 946.5,184.5C 946.5,196.833 946.5,209.167 946.5,221.5C 934.654,219.856 923.654,222.023 913.5,228C 907.858,233.243 904.691,239.743 904,247.5C 903.5,273.831 903.333,300.165 903.5,326.5C 891.833,326.5 880.167,326.5 868.5,326.5C 868.5,279.833 868.5,233.167 868.5,186.5C 880.167,186.5 891.833,186.5 903.5,186.5C 903.334,193.508 903.5,200.508 904,207.5C 911.576,195.748 922.076,188.081 935.5,184.5 Z"/></g>
<g><path style="opacity:1" fill="#1ab8a6" d="M 1023.5,183.5 C 1048.82,181.547 1069.99,189.881 1087,208.5C 1099.36,225.945 1103.69,245.278 1100,266.5C 1065.91,267.496 1031.74,267.829 997.5,267.5C 1000.82,289.984 1013.82,300.484 1036.5,299C 1046.49,297.491 1053.83,292.325 1058.5,283.5C 1071.49,282.334 1084.49,282.167 1097.5,283C 1085.87,313.408 1063.71,328.575 1031,328.5C 994.782,327.62 972.115,309.62 963,274.5C 956.705,244.48 964.538,218.98 986.5,198C 997.74,190.092 1010.07,185.259 1023.5,183.5 Z"/></g>
<g><path style="opacity:1" fill="#19b8a6" d="M 1435.5,183.5 C 1470.8,180.89 1496.3,195.223 1512,226.5C 1524.02,260.591 1516.85,289.757 1490.5,314C 1468.31,328.933 1444.31,332.6 1418.5,325C 1390.66,313.477 1375.49,292.644 1373,262.5C 1371.9,218.655 1392.73,192.322 1435.5,183.5 Z"/></g>
<g><path style="opacity:1" fill="#1ab8a6" d="M 1609.5,184.5 C 1636.34,180.48 1656.84,189.813 1671,212.5C 1674.41,219.799 1676.41,227.466 1677,235.5C 1677.5,265.832 1677.67,296.165 1677.5,326.5C 1665.5,326.5 1653.5,326.5 1641.5,326.5C 1641.67,297.165 1641.5,267.831 1641,238.5C 1635.26,219.367 1622.42,211.533 1602.5,215C 1591.65,217.499 1584.48,223.999 1581,234.5C 1579.54,265.125 1579.04,295.792 1579.5,326.5C 1567.5,326.5 1555.5,326.5 1543.5,326.5C 1543.5,279.833 1543.5,233.167 1543.5,186.5C 1555.5,186.5 1567.5,186.5 1579.5,186.5C 1579.33,191.844 1579.5,197.177 1580,202.5C 1587.92,193.294 1597.75,187.294 1609.5,184.5 Z"/></g>
<g><path style="opacity:1" fill="#1ab8a7" d="M 1776.5,184.5 C 1795.66,181.371 1812.66,185.871 1827.5,198C 1836.59,207.337 1842.09,218.504 1844,231.5C 1844.5,263.165 1844.67,294.832 1844.5,326.5C 1832.5,326.5 1820.5,326.5 1808.5,326.5C 1808.67,296.831 1808.5,267.165 1808,237.5C 1801.77,219.125 1788.94,211.625 1769.5,215C 1757.59,218.573 1750.09,226.406 1747,238.5C 1746.5,267.831 1746.33,297.165 1746.5,326.5C 1734.5,326.5 1722.5,326.5 1710.5,326.5C 1710.5,279.833 1710.5,233.167 1710.5,186.5C 1722.5,186.5 1734.5,186.5 1746.5,186.5C 1746.33,191.844 1746.5,197.177 1747,202.5C 1754.99,193.323 1764.82,187.323 1776.5,184.5 Z"/></g>
<g><path style="opacity:1" fill="#1ab8a7" d="M 1929.5,183.5 C 1954.96,181.226 1976.46,189.226 1994,207.5C 2007.12,225.47 2011.62,245.47 2007.5,267.5C 1973.5,267.5 1939.5,267.5 1905.5,267.5C 1908.67,289.503 1921.33,300.003 1943.5,299C 1954.12,297.86 1961.79,292.527 1966.5,283C 1979.16,282.5 1991.83,282.333 2004.5,282.5C 1996.42,308.068 1979.09,323.235 1952.5,328C 1924.44,332.317 1901.27,323.817 1883,302.5C 1870.82,283.602 1866.48,262.936 1870,240.5C 1877.36,208.3 1897.2,189.3 1929.5,183.5 Z"/></g>
<g><path style="opacity:1" fill="#19b8a6" d="M 2085.5,183.5 C 2103.39,182.307 2120.06,186.14 2135.5,195C 2148.74,204.655 2157.08,217.489 2160.5,233.5C 2147.82,233.832 2135.15,233.499 2122.5,232.5C 2114.87,217.213 2102.53,211.38 2085.5,215C 2075.76,218.41 2068.92,224.91 2065,234.5C 2059.25,252.103 2060.58,269.103 2069,285.5C 2082.28,300.115 2097.45,302.282 2114.5,292C 2117.91,288.516 2120.58,284.516 2122.5,280C 2135.18,279.167 2147.85,279.334 2160.5,280.5C 2152.54,306.631 2135.2,322.465 2108.5,328C 2074.02,333.174 2048.52,320.674 2032,290.5C 2023.77,268.624 2023.44,246.624 2031,224.5C 2041.9,201.096 2060.06,187.429 2085.5,183.5 Z"/></g>
<g><path style="opacity:1" fill="#6fd2c7" d="M 2192.5,185.5 C 2187.36,186.488 2182.03,186.821 2176.5,186.5C 2176.5,195.833 2176.5,205.167 2176.5,214.5C 2182.03,214.179 2187.36,214.512 2192.5,215.5C 2186.83,215.5 2181.17,215.5 2175.5,215.5C 2175.5,205.5 2175.5,195.5 2175.5,185.5C 2181.17,185.5 2186.83,185.5 2192.5,185.5 Z"/></g>
<g><path style="opacity:1" fill="#d9f3f0" d="M 665.5,203.5 C 666.043,203.56 666.376,203.893 666.5,204.5C 652.672,205.826 639.006,205.826 625.5,204.5C 639.01,204.829 652.344,204.496 665.5,203.5 Z"/></g>
<g><path style="opacity:1" fill="#fdfefe" d="M 1063.5,238.5 C 1063.5,239.833 1063.5,241.167 1063.5,242.5C 1041.83,242.5 1020.17,242.5 998.5,242.5C 998.5,241.5 998.5,240.5 998.5,239.5C 1002.22,222.609 1012.72,213.943 1030,213.5C 1042.48,213.074 1052.48,217.741 1060,227.5C 1062.08,230.893 1063.24,234.56 1063.5,238.5 Z"/></g>
<g><path style="opacity:1" fill="#fafdfd" d="M 1929.5,213.5 C 1944.48,211.027 1956.98,215.361 1967,226.5C 1970.44,231.662 1971.94,237.328 1971.5,243.5C 1949.5,243.5 1927.5,243.5 1905.5,243.5C 1907.24,228.431 1915.24,218.431 1929.5,213.5 Z"/></g>
<g><path style="opacity:1" fill="#fefefe" d="M 751.5,215.5 C 785.266,215.103 800.432,231.77 797,265.5C 791.489,288.337 776.989,298.837 753.5,297C 736.134,291.965 726.3,280.465 724,262.5C 721.402,239.668 730.568,224.002 751.5,215.5 Z"/></g>
<g><path style="opacity:1" fill="#fdfefe" d="M 1438.5,214.5 C 1469.7,215.878 1483.53,232.211 1480,263.5C 1475.79,288.7 1460.96,299.867 1435.5,297C 1421.37,292.606 1412.87,283.106 1410,268.5C 1409.33,260.5 1409.33,252.5 1410,244.5C 1413.23,228.438 1422.73,218.438 1438.5,214.5 Z"/></g>
<g><path style="opacity:1" fill="#aae5df" d="M 1063.5,238.5 C 1064.45,239.919 1064.78,241.585 1064.5,243.5C 1042.17,243.5 1019.83,243.5 997.5,243.5C 997.232,241.901 997.566,240.568 998.5,239.5C 998.5,240.5 998.5,241.5 998.5,242.5C 1020.17,242.5 1041.83,242.5 1063.5,242.5C 1063.5,241.167 1063.5,239.833 1063.5,238.5 Z"/></g>
<g><path style="opacity:1" fill="#54cabe" d="M 1310.5,271.5 C 1324.01,270.174 1337.67,270.174 1351.5,271.5C 1351.38,272.107 1351.04,272.44 1350.5,272.5C 1337.34,271.504 1324.01,271.171 1310.5,271.5 Z"/></g>
<g><path style="opacity:1" fill="#1ab8a6" d="M 270.5,350.5 C 284.504,350.333 298.504,350.5 312.5,351C 320.603,351.063 328.603,351.73 336.5,353C 337.826,365.137 337.826,377.303 336.5,389.5C 304.505,390.667 272.505,390.833 240.5,390C 239.346,377.909 239.179,365.742 240,353.5C 240.5,353 241,352.5 241.5,352C 251.342,351.83 261.009,351.33 270.5,350.5 Z"/></g>
<g><path style="opacity:1" fill="#18b8a6" d="M 112.5,352.5 C 144.502,352.333 176.502,352.5 208.5,353C 209.654,364.757 209.821,376.591 209,388.5C 193.053,389.826 176.886,390.492 160.5,390.5C 144.5,390.333 128.5,390.167 112.5,390C 111.176,377.5 111.176,365 112.5,352.5 Z"/></g>
</svg>
