<?xml version="1.0" encoding="UTF-8"?>
<svg version="1.1" xmlns="http://www.w3.org/2000/svg" width="1552" height="267">
<path d="M0 0 C512.16 0 1024.32 0 1552 0 C1552 88.11 1552 176.22 1552 267 C1039.84 267 527.68 267 0 267 C0 178.89 0 90.78 0 0 Z " fill="#FEFEFE" transform="translate(0,0)"/>
<path d="M0 0 C0.82741699 0.00572021 1.65483398 0.01144043 2.50732422 0.01733398 C16.21749427 0.41428471 25.835073 7.32872344 35 17 C35.92232422 18.03640625 35.92232422 18.03640625 36.86328125 19.09375 C38.56039643 20.69640517 38.56039643 20.69640517 40.6328125 20.5078125 C43.46328687 19.11948097 45.12196733 17.19585277 47.25 14.875 C55.34747762 6.513995 64.16942266 0.33786927 75.9855957 0.06884766 C90.50319005 0.03551219 100.87059592 3.12578567 111.5546875 13.2734375 C119.57379557 21.70554685 123.09042219 31.74143983 122.96484375 43.2109375 C121.65768122 58.71278047 111.62552792 70.40078548 101.6875 81.5 C101.16124023 82.08942383 100.63498047 82.67884766 100.09277344 83.28613281 C93.0964717 91.06957083 85.78062803 98.39703415 78.09741211 105.49926758 C70.24845692 112.80601082 62.69552032 120.40731511 55.125 128 C54.46023651 128.66662659 53.79547302 129.33325317 53.11056519 130.02008057 C49.29948564 133.84335566 45.49204268 137.67022053 41.6875 141.5 C38.65772571 140.14768813 36.60277387 138.64519457 34.296875 136.26953125 C33.35521484 135.31143555 33.35521484 135.31143555 32.39453125 134.33398438 C31.74871094 133.66689453 31.10289062 132.99980469 30.4375 132.3125 C25.99177363 127.74403885 21.48286518 123.36598061 16.65234375 119.2043457 C10.47644936 113.84724844 4.59670284 108.14708555 -1.3125 102.5 C-2.07546387 101.77248535 -2.83842773 101.0449707 -3.62451172 100.29541016 C-17.29072151 87.18805226 -29.36890947 74.40218238 -36.3125 56.5 C-36.65023437 55.70851562 -36.98796875 54.91703125 -37.3359375 54.1015625 C-40.75315952 44.91581891 -41.08137716 32.29555214 -37.875 23 C-33.01677655 13.06038382 -24.49071917 5.57181696 -14.14453125 1.90234375 C-9.38284593 0.36363108 -4.98372073 -0.04048056 0 0 Z " fill="#15B8A6" transform="translate(110.3125,3.5)"/>
<path d="M0 0 C4.62069228 2.85683911 8.60378688 5.5842918 12.20703125 9.66796875 C12.53703125 5.70796875 12.86703125 1.74796875 13.20703125 -2.33203125 C21.45703125 -2.33203125 29.70703125 -2.33203125 38.20703125 -2.33203125 C38.20703125 29.34796875 38.20703125 61.02796875 38.20703125 93.66796875 C29.95703125 93.66796875 21.70703125 93.66796875 13.20703125 93.66796875 C12.87703125 89.70796875 12.54703125 85.74796875 12.20703125 81.66796875 C11.21703125 82.74046875 10.22703125 83.81296875 9.20703125 84.91796875 C5.57234795 88.56000971 1.92949867 90.7141636 -2.79296875 92.66796875 C-3.48777344 93.02503906 -4.18257812 93.38210937 -4.8984375 93.75 C-14.03955459 96.64900475 -28.16529824 96.35683018 -36.734375 91.98828125 C-49.58580372 83.74580894 -57.32120191 73.15786166 -61.43359375 58.36328125 C-63.56375379 42.38708094 -62.26662339 27.28208299 -53.04296875 13.66796875 C-40.32543248 -2.32385858 -19.01298192 -9.06772984 0 0 Z " fill="#17B9A7" transform="translate(537.79296875,112.33203125)"/>
<path d="M0 0 C5.11022468 3.1650781 6.55371361 6.83750806 8.5234375 12.24609375 C8.83270172 13.05305191 9.14196594 13.86001007 9.46060181 14.69142151 C10.44639243 17.26827603 11.41216369 19.85198997 12.375 22.4375 C19.70872139 43.28597948 19.70872139 43.28597948 32.3125 61.125 C33.26467592 62.11554621 34.21649082 63.10643956 35.16796875 64.09765625 C35.64024902 64.57992676 36.1125293 65.06219727 36.59912109 65.55908203 C42.20834546 71.32862581 47.52753297 77.35092497 52.5625 83.625 C59.76428642 93.53060604 59.76428642 93.53060604 70 99 C68.49925591 93.92423495 65.40155509 90.89299486 61.8125 87.1875 C60.6215764 85.93306911 59.43146407 84.67786749 58.2421875 83.421875 C57.67467773 82.82568359 57.10716797 82.22949219 56.52246094 81.61523438 C54.77741338 79.76384973 53.0951948 77.86735365 51.4375 75.9375 C48.89329295 72.98089031 46.25997466 70.12209414 43.59716797 67.27294922 C28.20265924 50.78656461 28.20265924 50.78656461 27.75 44.5625 C28 41 28 41 29 39.0625 C32.33594765 37.29027781 35.39625927 37.22730604 39 38 C45.0725354 41.10319945 49.65669858 46.60710193 54.359375 51.41796875 C57.83228029 54.81381253 61.55131168 57.81945306 65.34765625 60.84375 C67.82340481 62.85643514 70.16079573 64.95675361 72.5 67.125 C78.67113178 72.62606143 85.51496885 76.6977168 92.796875 80.56640625 C102.20944125 85.57474165 110.65605087 90.1293332 118 98 C118.5878125 98.58136719 119.175625 99.16273438 119.78125 99.76171875 C130.42416514 110.952431 130.25792804 128.11882918 130.16796875 142.65625 C130 145 130 145 129 146 C121.48791661 146.77186777 113.87694443 146.80011477 106.32958984 146.96293831 C102.83648667 147.03979982 99.35127029 147.148061 95.86230469 147.33740234 C71.55070599 148.62355634 71.55070599 148.62355634 63.55078125 142.38183594 C59.86496011 138.93769155 56.76343239 135.16371981 53.73805237 131.13757324 C50.89030841 127.63522694 47.4537659 124.88169241 44 122 C41.12875444 119.30807543 38.34387125 116.53453549 35.5625 113.75 C34.81822754 113.00492187 34.07395508 112.25984375 33.30712891 111.4921875 C27.80279373 105.92646569 22.77129096 100.21073106 18 94 C17.36835938 93.23558594 16.73671875 92.47117187 16.0859375 91.68359375 C6.3864669 79.81722015 3.05782056 65.9566494 -0.92480469 51.45849609 C-3.08805812 43.60394348 -5.37941581 35.78758519 -7.67700195 27.97143555 C-7.96406006 26.99343994 -8.25111816 26.01544434 -8.546875 25.0078125 C-8.80307617 24.13785645 -9.05927734 23.26790039 -9.32324219 22.37158203 C-11.26374854 15.57140932 -12.23413701 9.19753681 -9.625 2.4375 C-6.81430954 -1.77853569 -4.66207903 -1.18837309 0 0 Z " fill="#15B8A6" transform="translate(11,83)"/>
<path d="M0 0 C3.42815707 3.42815707 2.6068593 8.39344888 2.64916992 13.01513672 C2.36921403 24.74477955 -1.48743941 35.68444869 -5 46.77880859 C-6.12392132 50.39917429 -7.12698817 54.03961545 -8.09594727 57.70385742 C-13.28178622 77.28505454 -21.65460621 90.96703462 -35.48144531 105.39599609 C-36.98944296 106.98884892 -38.46409619 108.60639221 -39.9296875 110.23828125 C-40.6414917 111.02900024 -40.6414917 111.02900024 -41.36767578 111.83569336 C-42.65772373 113.27224446 -43.9461136 114.71028405 -45.234375 116.1484375 C-47.34137537 118.32090963 -49.42313736 120.27070374 -51.7109375 122.234375 C-56.69210127 126.52423211 -61.26504461 131.19346145 -65.875 135.875 C-67.5575885 137.58300524 -69.24237133 139.28885251 -70.9296875 140.9921875 C-71.66429199 141.73839355 -72.39889648 142.48459961 -73.15576172 143.25341797 C-76.3267258 146.25647292 -78.44656779 146.12618308 -82.71899414 146.12939453 C-84.51579369 146.13412277 -84.51579369 146.13412277 -86.34889221 146.13894653 C-87.64785934 146.1369223 -88.94682648 146.13489807 -90.28515625 146.1328125 C-91.62511716 146.13348582 -92.96507796 146.13445608 -94.30503845 146.13571167 C-97.11360843 146.13718681 -99.92214661 146.13503963 -102.73071289 146.13037109 C-106.33797002 146.1246684 -109.94515285 146.12795736 -113.55240726 146.13394356 C-116.31897038 146.13754943 -119.08551575 146.13641056 -121.85207939 146.13381577 C-123.83140486 146.13282067 -125.810731 146.13586688 -127.79005432 146.13894653 C-128.98476852 146.13579437 -130.17948273 146.13264221 -131.41040039 146.12939453 C-132.99686119 146.12820114 -132.99686119 146.12820114 -134.6153717 146.12698364 C-137 146 -137 146 -138 145 C-137.92987123 128.43207748 -137.5150041 110.63983986 -125.984375 97.74609375 C-117.81457297 89.7569166 -107.53606648 84.62358315 -97.625 79.12890625 C-87.48475945 73.4118175 -79.11029707 66.07601036 -70.54296875 58.2578125 C-67.86222776 55.87767687 -65.10495866 53.62268159 -62.3125 51.375 C-58.4420994 48.24911776 -54.85501616 45.02417958 -51.4375 41.41015625 C-48.72159894 38.74591635 -46.7247816 37.70866353 -43 37.6875 C-40.51670469 37.76966786 -39.2138784 37.8863771 -37 39.0625 C-35.37448399 42.21193728 -35.59223843 44.50490081 -36 48 C-38.79311392 53.70203988 -42.41421612 57.90374057 -46.8125 62.4375 C-48.07508159 63.76350188 -49.33681133 65.09031543 -50.59765625 66.41796875 C-51.19336426 67.0423584 -51.78907227 67.66674805 -52.40283203 68.31005859 C-54.77601966 70.8210957 -57.03638889 73.42047237 -59.2890625 76.0390625 C-61.52769492 78.60480103 -63.82749584 81.11189428 -66.125 83.625 C-67.75034772 85.41635123 -69.37538521 87.20798403 -71 89 C-71.86625 89.93779297 -71.86625 89.93779297 -72.75 90.89453125 C-75.47386539 93.95114156 -76 94.69851298 -76 99 C-75.01 99 -74.02 99 -73 99 C-71.13987251 97.08753864 -71.13987251 97.08753864 -69.25 94.5 C-64.62809102 88.64305633 -59.63606887 83.23772231 -54.49316406 77.8359375 C-50.73957388 73.8856266 -47.10740233 69.85916752 -43.54052734 65.73950195 C-42.37147246 64.41945187 -41.14004742 63.15432707 -39.8828125 61.91796875 C-30.76035896 52.93742004 -26.53572061 39.97508875 -21.9375 28.3046875 C-21.67366516 27.63662582 -21.40983032 26.96856415 -21.13800049 26.28025818 C-19.82134127 22.93812566 -18.52168667 19.59082742 -17.24902344 16.23168945 C-12.70623243 4.39827427 -12.70623243 4.39827427 -8 0 C-4.67679974 -1.10773342 -3.30835256 -0.93312508 0 0 Z " fill="#15B8A6" transform="translate(300,83)"/>
<path d="M0 0 C0.80759766 -0.00773437 1.61519531 -0.01546875 2.44726562 -0.0234375 C10.75986002 0.00335571 17.24299105 1.80693676 24.6875 5.5625 C25.84507812 6.13613281 27.00265625 6.70976563 28.1953125 7.30078125 C38.67478898 13.36720673 45.70278159 23.47721175 49.09301758 35.06298828 C52.1217104 49.1716884 50.32423022 65.07210893 42.5625 77.1875 C41.57413007 78.55017834 40.5756425 79.90563783 39.5625 81.25 C38.985 82.11625 38.4075 82.9825 37.8125 83.875 C29.39815797 92.75680547 18.30125626 97.98767949 6.125 98.66015625 C4.18787179 98.70850306 2.250197 98.73844672 0.3125 98.75 C-0.59790039 98.75636475 -1.50830078 98.76272949 -2.44628906 98.76928711 C-15.40778356 98.526171 -27.22939991 93.45810009 -36.4375 84.25 C-46.59112948 70.50354778 -49.74485935 57.10324967 -48.4375 40.25 C-46.14114721 27.20505613 -39.28118638 15.90929625 -28.4375 8.25 C-19.14079794 2.80773243 -10.76470571 -0.10260244 0 0 Z " fill="#16B8A6" transform="translate(991.4375,108.75)"/>
<path d="M0 0 C11.17879614 7.00788397 18.00361059 16.37294351 21.66796875 28.9765625 C22.88184643 35.17129695 24.28794647 44.84207581 21.38671875 50.64453125 C-1.71328125 50.64453125 -24.81328125 50.64453125 -48.61328125 50.64453125 C-45.48048853 61.70360528 -45.48048853 61.70360528 -38.05078125 69.51953125 C-31.41323789 72.5830128 -23.14331362 72.88904564 -16.125 70.9609375 C-12.39884737 69.26978348 -10.94969323 68.40264275 -9.2265625 64.51953125 C-6.61328125 61.64453125 -6.61328125 61.64453125 -3.85913086 61.15869141 C-0.34343511 61.05282029 3.122544 61.1231073 6.63671875 61.26953125 C7.85875 61.29660156 9.08078125 61.32367188 10.33984375 61.3515625 C13.35724616 61.42228287 16.37109445 61.52094009 19.38671875 61.64453125 C16.06258033 72.40696901 10.7123945 80.03177936 1.38671875 86.64453125 C-11.75956914 93.2503774 -25.75229739 94.67951217 -40.26171875 91.9609375 C-42.89614211 91.05134433 -45.19487247 90.02464792 -47.61328125 88.64453125 C-48.40476562 88.19722656 -49.19625 87.74992187 -50.01171875 87.2890625 C-52.3277333 85.85405681 -54.46712095 84.321474 -56.61328125 82.64453125 C-57.22945312 82.16628906 -57.845625 81.68804687 -58.48046875 81.1953125 C-65.76379328 74.76980175 -71.94335346 62.80609439 -72.84643555 53.15209961 C-73.60898384 37.38961908 -73.27562215 23.13254686 -62.48828125 10.6015625 C-46.10668911 -6.4967243 -21.38426767 -11.09169041 0 0 Z " fill="#16B8A6" transform="translate(735.61328125,114.35546875)"/>
<path d="M0 0 C0.82113281 -0.01224609 1.64226562 -0.02449219 2.48828125 -0.03710938 C15.77625241 -0.06869726 27.02888902 4.88374637 36.62890625 13.96484375 C48.47557661 26.47676989 47.75 39.07214001 47.75 56.1875 C24.65 56.1875 1.55 56.1875 -22.25 56.1875 C-18.77608197 68.33930172 -18.77608197 68.33930172 -9.86328125 76.2734375 C-3.40067917 78.53389921 4.41291144 78.37026557 10.8359375 76.09375 C13.65261561 74.25120454 14.47387501 73.20015634 16.2890625 70.52734375 C18.3686816 67.94918582 19.35924522 67.26351289 22.65917969 66.62158203 C26.17165275 66.49872194 29.61481341 66.57696263 33.125 66.75 C34.33800781 66.78158203 35.55101562 66.81316406 36.80078125 66.84570312 C39.78634184 66.92798235 42.7669161 67.04289067 45.75 67.1875 C42.58864816 77.67995441 36.95164852 85.93908327 27.75 92.1875 C14.93104903 98.63035817 -0.79435235 100.89243616 -14.875 97.0625 C-20.04124814 95.13315777 -24.68101108 92.24168076 -29.25 89.1875 C-30.5803125 88.32125 -30.5803125 88.32125 -31.9375 87.4375 C-38.74620863 80.81281052 -42.4727629 73.16126073 -45.25 64.1875 C-45.745 62.7025 -45.745 62.7025 -46.25 61.1875 C-46.5373385 57.19250397 -46.52786191 53.19166326 -46.5625 49.1875 C-46.59150391 48.10082031 -46.62050781 47.01414063 -46.65039062 45.89453125 C-46.75079747 32.96521888 -42.14084725 21.19777268 -32.99609375 11.89453125 C-23.27885429 3.58106635 -12.55179207 0.0096701 0 0 Z " fill="#16B8A6" transform="translate(1328.25,108.8125)"/>
<path d="M0 0 C9.50068516 7.19103584 17.306098 15.2169865 21.265625 26.71484375 C21.265625 27.70484375 21.265625 28.69484375 21.265625 29.71484375 C16.93373225 30.00717455 12.60438465 30.1834518 8.265625 30.33984375 C7.04488281 30.42363281 5.82414063 30.50742188 4.56640625 30.59375 C-4.45057916 30.83745231 -4.45057916 30.83745231 -8.20776367 27.55200195 C-10.27734375 24.8671875 -10.27734375 24.8671875 -11.95776367 22.17944336 C-15.45957943 17.32155822 -21.22232002 15.55219541 -26.734375 13.71484375 C-38.51006651 13.02682582 -48.33491876 13.29650646 -57.8828125 20.98046875 C-65.4484239 28.06724399 -69.52803453 36.57996353 -69.97265625 46.9375 C-70.27649808 60.19020448 -69.16146881 71.57894589 -59.734375 81.71484375 C-51.65420247 89.61545689 -43.89729703 91.39496443 -32.90673828 91.32348633 C-24.56805326 90.98512153 -17.61336379 88.75857724 -11.7109375 82.60546875 C-9.75139242 80.08473939 -8.16021796 77.56652966 -6.734375 74.71484375 C2.505625 74.71484375 11.745625 74.71484375 21.265625 74.71484375 C18.7206506 87.43971577 10.66542172 97.34861028 0.015625 104.58984375 C-14.86339215 113.4070391 -33.3386638 116.7210693 -50.3203125 112.80859375 C-65.42321983 108.63924135 -78.44876237 99.75996717 -87.1328125 86.58984375 C-96.10761491 70.47897893 -98.50755787 51.75004624 -94.171875 33.77734375 C-89.48711606 18.54368706 -79.61721378 5.65947558 -65.734375 -2.28515625 C-45.09246064 -12.3257252 -19.67236814 -13.1483685 0 0 Z " fill="#16B8A7" transform="translate(906.734375,93.28515625)"/>
<path d="M0 0 C0.64453125 0.47953125 1.2890625 0.9590625 1.953125 1.453125 C2.984375 2.195625 4.015625 2.938125 5.078125 3.703125 C11.17462749 9.53456216 15.57841606 16.75878861 18.953125 24.453125 C18.953125 25.443125 18.953125 26.433125 18.953125 27.453125 C14.41255697 27.71513253 9.87393097 27.87454826 5.328125 28.015625 C4.04292969 28.09103516 2.75773437 28.16644531 1.43359375 28.24414062 C-7.95548262 28.46305691 -7.95548262 28.46305691 -11.14355469 25.51293945 C-12.6953125 23.1015625 -12.6953125 23.1015625 -13.84912109 20.68896484 C-16.30259212 16.10908559 -21.12453992 14.23147681 -25.7578125 12.35546875 C-34.82844896 9.86696872 -45.35895999 10.03297104 -53.859375 14.140625 C-57.82535298 16.47869466 -61.13846439 18.83964515 -64.046875 22.453125 C-64.47355469 22.95328125 -64.90023437 23.4534375 -65.33984375 23.96875 C-71.46144039 31.65216162 -72.61151137 40.76446083 -72.546875 50.328125 C-72.54260498 51.29049072 -72.53833496 52.25285645 -72.53393555 53.24438477 C-72.35274137 60.82957017 -71.00357729 66.8878489 -67.046875 73.453125 C-66.48806641 74.47212891 -66.48806641 74.47212891 -65.91796875 75.51171875 C-61.75457574 82.25728582 -54.59069726 86.48439321 -47.046875 88.453125 C-36.90498414 89.58997064 -26.48596388 89.8527674 -18.046875 83.453125 C-14.92947408 80.81011118 -13.310538 79.11891553 -11.8046875 75.31640625 C-8.40935822 71.79122727 -7.30005294 72.00191972 -2.53125 71.8671875 C0.04752531 71.90706547 2.62596197 71.97861078 5.203125 72.078125 C6.52054687 72.10519531 7.83796875 72.13226563 9.1953125 72.16015625 C12.44956087 72.23090078 15.70052248 72.32958439 18.953125 72.453125 C14.87909356 85.63797442 8.06468033 95.86137598 -3.8984375 103.203125 C-6.89872327 104.78638926 -9.91393234 106.15332912 -13.046875 107.453125 C-13.99691406 107.86691406 -14.94695312 108.28070313 -15.92578125 108.70703125 C-31.34456749 114.47651189 -49.14283519 112.92029646 -64.046875 106.453125 C-79.78469022 99.10632501 -89.6539004 86.84018145 -95.984375 70.953125 C-100.19158195 57.09409036 -100.63867232 37.51350848 -94.046875 24.453125 C-93.62277344 23.53015625 -93.19867188 22.6071875 -92.76171875 21.65625 C-85.09585981 6.19641191 -72.32119023 -3.88495047 -56.27734375 -9.51953125 C-37.24862764 -15.11621246 -16.08749645 -11.45800107 0 0 Z " fill="#16B8A7" transform="translate(442.046875,95.546875)"/>
<path d="M0 0 C9.30349716 5.70930033 14.63052148 13.1568433 17.45703125 23.640625 C17.63621094 24.41921875 17.81539062 25.1978125 18 26 C18.2607859 27.11685432 18.2607859 27.11685432 18.52684021 28.25627136 C19.05334626 31.30934089 19.1198357 34.16067046 19.11352539 37.2590332 C19.11341209 39.12039665 19.11341209 39.12039665 19.11329651 41.0193634 C19.10819072 42.36316977 19.10297474 43.70697571 19.09765625 45.05078125 C19.09578965 46.43368987 19.09436689 47.81659915 19.09336853 49.19950867 C19.08956237 52.82774706 19.07974843 56.455945 19.06866455 60.08416748 C19.05840945 63.79113213 19.05386215 67.49810336 19.04882812 71.20507812 C19.03812435 78.4700726 19.02054306 85.73502546 19 93 C10.75 93 2.5 93 -6 93 C-6.00410889 91.16896729 -6.00821777 89.33793457 -6.01245117 87.45141602 C-6.03191994 81.37233805 -6.07434034 75.29375128 -6.13209057 69.214921 C-6.16624653 65.53260363 -6.19145257 61.8506961 -6.19555664 58.16821289 C-6.19986443 54.60813128 -6.22852842 51.04897236 -6.27343178 47.48917961 C-6.292565 45.48372588 -6.28707357 43.4780854 -6.28105164 41.47254944 C-6.40061684 33.92112265 -7.10316386 27.99213396 -12 22 C-17.68470385 17.1817875 -24.23452635 17.52796267 -31.4140625 17.46875 C-36.62787883 18.24116723 -39.68197647 20.60875294 -43.25 24.375 C-46.39746253 29.0961938 -47.24784121 33.57945563 -47.31884766 39.18896484 C-47.33871735 40.38975677 -47.35858704 41.59054871 -47.37905884 42.82772827 C-47.39061005 44.10918732 -47.40216125 45.39064636 -47.4140625 46.7109375 C-47.43279211 48.04758882 -47.45236684 49.38422855 -47.4727478 50.72085571 C-47.52388601 54.2224033 -47.56360901 57.72398914 -47.60089111 61.22570801 C-47.64104627 64.80551474 -47.69208583 68.38516485 -47.7421875 71.96484375 C-47.83872963 78.97645412 -47.92219606 85.98815691 -48 93 C-56.25 93 -64.5 93 -73 93 C-73 61.32 -73 29.64 -73 -3 C-64.75 -3 -56.5 -3 -48 -3 C-47.67 0.3 -47.34 3.6 -47 7 C-46.0925 6.113125 -45.185 5.22625 -44.25 4.3125 C-32.03791774 -5.92910683 -14.04928731 -7.64679406 0 0 Z " fill="#1AB9A8" transform="translate(1132,113)"/>
<path d="M0 0 C7.77727272 6.43803281 12.97331976 15.28424638 14.625 25.25 C14.71029699 27.42679945 14.74275542 29.60595796 14.73852539 31.78442383 C14.73841209 33.73588066 14.73841209 33.73588066 14.73829651 35.72676086 C14.73319062 37.13685139 14.72797464 38.54694151 14.72265625 39.95703125 C14.72078979 41.40720063 14.71936696 42.85737065 14.71836853 44.30754089 C14.7145613 48.11332966 14.70474642 51.91907991 14.69366455 55.72485352 C14.68341177 59.61278767 14.67886264 63.50072808 14.67382812 67.38867188 C14.66312246 75.00913413 14.64554028 82.62955675 14.625 90.25 C6.705 90.25 -1.215 90.25 -9.375 90.25 C-9.3843457 88.50984619 -9.39369141 86.76969238 -9.40332031 84.97680664 C-9.43898626 79.1971297 -9.49287166 73.41777309 -9.55890274 67.63837528 C-9.59824309 64.13772396 -9.63049655 60.6373191 -9.64599609 57.13647461 C-9.66417878 53.1023004 -9.71418781 49.06904458 -9.765625 45.03515625 C-9.76685364 43.79105484 -9.76808228 42.54695343 -9.76934814 41.26515198 C-9.91490112 32.55096652 -11.17946051 26.10103477 -16.8125 19.3125 C-23.23376744 14.14416279 -30.4625226 14.51162365 -38.375 15.25 C-43.31727541 16.78409556 -46.55667551 19.97032206 -49.375 24.25 C-51.2060091 28.08680079 -51.64122224 31.18089066 -51.69384766 35.41723633 C-51.71371735 36.63812454 -51.73358704 37.85901276 -51.75405884 39.11689758 C-51.77138565 41.07963875 -51.77138565 41.07963875 -51.7890625 43.08203125 C-51.80778547 44.44253194 -51.82735973 45.80302117 -51.8477478 47.16349792 C-51.89895602 50.73246479 -51.93864187 54.30146926 -51.97589111 57.87060547 C-52.01600201 61.51734635 -52.06706192 65.16393234 -52.1171875 68.81054688 C-52.21381269 75.9569236 -52.2972473 83.10338939 -52.375 90.25 C-60.295 90.25 -68.215 90.25 -76.375 90.25 C-76.375 58.57 -76.375 26.89 -76.375 -5.75 C-68.455 -5.75 -60.535 -5.75 -52.375 -5.75 C-52.045 -2.45 -51.715 0.85 -51.375 4.25 C-50.80652344 3.77949219 -50.23804688 3.30898437 -49.65234375 2.82421875 C-35.2023577 -8.82743945 -15.87117331 -11.00160877 0 0 Z " fill="#16B8A6" transform="translate(1250.375,115.75)"/>
<path d="M0 0 C0.69996094 0.26683594 1.39992188 0.53367187 2.12109375 0.80859375 C12.79937562 5.49205071 19.44473313 14.18320113 24.16015625 24.55078125 C25 27 25 27 25 31 C20.77176232 31.23264031 16.54516663 31.37452126 12.3125 31.5 C10.51522461 31.60054687 10.51522461 31.60054687 8.68164062 31.703125 C-0.03639155 31.8973987 -0.03639155 31.8973987 -2.87963867 29.24951172 C-4.13386019 27.21120049 -5.06508214 25.19753311 -6 23 C-10.01674747 19.11282503 -14.89485285 17.89853574 -20.375 17.625 C-26.85718903 17.79960442 -31.23845111 20.27759664 -35.8125 24.75 C-40.44327457 31.63000793 -41.5355175 37.76038624 -41.4375 45.875 C-41.42920166 46.75687988 -41.42090332 47.63875977 -41.41235352 48.54736328 C-41.22034912 55.93645788 -40.41922408 62.15944972 -35.3515625 67.8515625 C-30.13016034 72.66254877 -25.41492461 74.40720634 -18.34765625 74.265625 C-14.56458945 73.83759082 -11.49090383 72.50469993 -8 71 C-7.01 70.67 -6.02 70.34 -5 70 C-3.87483915 68.16715557 -3.87483915 68.16715557 -3 66 C-2.01 64.02 -2.01 64.02 -1 62 C7.58 62 16.16 62 25 62 C21.59458844 73.35137187 17.07371764 82.31254893 7 89 C-6.12653451 95.5803591 -21.42448371 97.50103953 -35.83203125 94.09375 C-38.74383369 92.92753387 -41.33115598 91.64303427 -44 90 C-44.72960938 89.55398437 -45.45921875 89.10796875 -46.2109375 88.6484375 C-54.01601624 83.29552909 -60.61524653 75.87884606 -64 67 C-64.29777344 66.24847656 -64.59554688 65.49695313 -64.90234375 64.72265625 C-69.36556451 51.37412965 -68.55720741 34.49123817 -62.48828125 21.8515625 C-55.80093538 9.67909024 -46.93572534 1.88681908 -33.609375 -2.2734375 C-22.64899764 -4.47974723 -10.44092608 -4.13697071 0 0 Z " fill="#16B8A7" transform="translate(1455,112)"/>
<path d="M0 0 C7.92 0 15.84 0 24 0 C24 7.59 24 15.18 24 23 C31.26 23 38.52 23 46 23 C46 29.6 46 36.2 46 43 C38.74 43 31.48 43 24 43 C24.07400346 49.88742585 24.15684097 56.77355414 24.26245117 63.66040039 C24.29568906 66.00277978 24.3237245 68.34523904 24.34643555 70.68774414 C24.38000168 74.05649833 24.43232019 77.42452131 24.48828125 80.79296875 C24.49467117 81.83897751 24.5010611 82.88498627 24.50764465 83.96269226 C24.50984301 91.05430141 24.50984301 91.05430141 28 97 C29.99726227 97.76915631 29.99726227 97.76915631 32.23046875 97.70703125 C33.31557739 97.74920776 33.31557739 97.74920776 34.42260742 97.79223633 C35.79122925 97.80226685 35.79122925 97.80226685 37.1875 97.8125 C41.5496875 97.9053125 41.5496875 97.9053125 46 98 C46 104.93 46 111.86 46 119 C42.37453463 119.08170915 38.75095107 119.14084254 35.125 119.1875 C34.11179687 119.21263672 33.09859375 119.23777344 32.0546875 119.26367188 C21.97928217 119.36055077 14.00573383 117.88204675 6.62109375 110.75 C-0.59580444 102.95922797 -0.29064615 92.82183698 -0.1953125 82.74609375 C-0.1924826 81.60463394 -0.18965271 80.46317413 -0.18673706 79.28712463 C-0.17561476 75.67047277 -0.15052481 72.05407599 -0.125 68.4375 C-0.11495993 65.97331089 -0.10583588 63.50911786 -0.09765625 61.04492188 C-0.07570146 55.02985085 -0.04122665 49.01496855 0 43 C-3.96 43 -7.92 43 -12 43 C-12 36.4 -12 29.8 -12 23 C-8.04 23 -4.08 23 0 23 C0 15.41 0 7.82 0 0 Z " fill="#16B8A7" transform="translate(1502,87)"/>
<path d="M0 0 C0 8.58 0 17.16 0 26 C-3.96 26.0928125 -3.96 26.0928125 -8 26.1875 C-14.67364357 26.51830969 -20.24126156 26.841722 -25 32 C-29.22895601 39.36715823 -29.60050131 46.69163434 -29.609375 55.0078125 C-29.62591125 56.2144455 -29.64244751 57.42107849 -29.65948486 58.66427612 C-29.70772426 62.48457045 -29.72928337 66.30446737 -29.75 70.125 C-29.77817963 72.7291864 -29.80810982 75.33335449 -29.83984375 77.9375 C-29.91674347 84.2918453 -29.95749138 90.64496125 -30 97 C-37.92 97 -45.84 97 -54 97 C-54 65.32 -54 33.64 -54 1 C-45.75 1 -37.5 1 -29 1 C-28.67 4.96 -28.34 8.92 -28 13 C-27.030625 11.948125 -26.06125 10.89625 -25.0625 9.8125 C-17.44747869 2.182001 -10.62073193 0 0 0 Z " fill="#18B9A7" transform="translate(653,109)"/>
<path d="M0 0 C6.44339147 3.91657129 9.70171643 9.90050761 12 17 C13.61253527 26.86578399 12.29797088 35.64205492 6.6796875 43.953125 C2.35651964 49.5756056 -2.22600853 52.48208948 -9.2734375 53.44921875 C-17.6133489 53.85626432 -23.70561161 52.66957778 -30 47 C-37.51096806 38.08072543 -38.93914507 29.38915018 -38.23828125 18.03515625 C-37.49174886 11.65903536 -34.23193058 6.84704944 -29.625 2.5625 C-20.41074767 -4.43240553 -10.33251024 -4.85767341 0 0 Z " fill="#FCFEFE" transform="translate(539,133)"/>
<path d="M0 0 C6.51453668 3.75431903 10.75151141 9.63182035 13.09375 16.7421875 C14.97441406 25.8007194 13.8714719 35.20428557 9.2734375 43.2578125 C5.36480924 48.92218821 1.11772714 51.81492429 -5.4375 54 C-12.87833691 54.66182793 -19.67328456 55.17550729 -25.828125 50.48046875 C-32.06599496 44.74223401 -35.1205575 39.41982822 -35.72265625 31.0234375 C-36.01557064 21.60205549 -35.58511922 13.81400586 -30.3125 5.75 C-21.63371465 -2.55144686 -11.31939586 -5.01190118 0 0 Z " fill="#FCFEFE" transform="translate(1003.4375,132)"/>
<path d="M0 0 C1.1416864 -0.00315216 2.2833728 -0.00630432 3.45965576 -0.009552 C5.31895721 -0.00651566 5.31895721 -0.00651566 7.21582031 -0.00341797 C8.48613098 -0.00437469 9.75644165 -0.00533142 11.06524658 -0.00631714 C13.75870131 -0.0069989 16.45206591 -0.0056444 19.14550781 -0.00097656 C22.58636515 0.00469774 26.02714409 0.00145573 29.4679985 -0.00454903 C32.75894184 -0.0090501 36.04987595 -0.00588908 39.34082031 -0.00341797 C40.57225769 -0.0054422 41.80369507 -0.00746643 43.07244873 -0.009552 C44.22674377 -0.00639984 45.38103882 -0.00324768 46.5703125 0 C48.08682404 0.00119339 48.08682404 0.00119339 49.63397217 0.00241089 C52.54394531 0.12939453 52.54394531 0.12939453 58.54394531 1.12939453 C58.54394531 9.37939453 58.54394531 17.62939453 58.54394531 26.12939453 C36.76394531 26.12939453 14.98394531 26.12939453 -7.45605469 26.12939453 C-7.45605469 17.87939453 -7.45605469 9.62939453 -7.45605469 1.12939453 C-4.84418888 -0.17653837 -2.92481532 0.0023089 0 0 Z " fill="#14B8A6" transform="translate(169.4560546875,233.87060546875)"/>
<path d="M0 0 C0.78955078 -0.01224609 1.57910156 -0.02449219 2.39257812 -0.03710938 C4.45057435 -0.04237279 6.50812009 0.06543715 8.5625 0.1875 C10.5625 2.1875 10.5625 2.1875 10.7578125 5.4453125 C10.73460937 6.72148438 10.71140625 7.99765625 10.6875 9.3125 C10.66945312 10.59382813 10.65140625 11.87515625 10.6328125 13.1953125 C10.60960937 14.18273438 10.58640625 15.17015625 10.5625 16.1875 C11.53832031 16.15269531 12.51414063 16.11789063 13.51953125 16.08203125 C14.79183594 16.05496094 16.06414062 16.02789062 17.375 16 C18.63957031 15.96519531 19.90414062 15.93039063 21.20703125 15.89453125 C24.5625 16.1875 24.5625 16.1875 26.4921875 17.2265625 C28.16174032 20.28537825 27.95517837 23.36005837 27.875 26.75 C27.87822266 27.43513672 27.88144531 28.12027344 27.88476562 28.82617188 C27.82977586 33.92022414 27.82977586 33.92022414 25.5625 36.1875 C22.98185871 36.33247985 20.51306116 36.37427545 17.9375 36.3125 C17.23109375 36.30347656 16.5246875 36.29445312 15.796875 36.28515625 C14.05193902 36.26157603 12.30717705 36.22570461 10.5625 36.1875 C10.58570313 37.24710938 10.60890625 38.30671875 10.6328125 39.3984375 C10.65156944 40.7864513 10.66976972 42.1744727 10.6875 43.5625 C10.70425781 44.26117188 10.72101563 44.95984375 10.73828125 45.6796875 C10.75594267 47.51647486 10.66553261 49.35351963 10.5625 51.1875 C8.00301001 53.74698999 6.29042805 53.44818731 2.796875 53.4609375 C2.05953125 53.45320313 1.3221875 53.44546875 0.5625 53.4375 C-0.54351562 53.44910156 -0.54351562 53.44910156 -1.671875 53.4609375 C-7.1841804 53.4408196 -7.1841804 53.4408196 -9.4375 51.1875 C-9.58297834 48.59798555 -9.62399052 46.14564609 -9.5625 43.5625 C-9.500625 39.911875 -9.500625 39.911875 -9.4375 36.1875 C-14.7175 36.1875 -19.9975 36.1875 -25.4375 36.1875 C-27.02446844 33.01356311 -26.5806447 29.60575795 -26.5625 26.125 C-26.56636719 25.37927734 -26.57023437 24.63355469 -26.57421875 23.86523438 C-26.56413501 18.31413501 -26.56413501 18.31413501 -25.4375 17.1875 C-22.74095146 17.11430379 -20.07058542 17.09507463 -17.375 17.125 C-16.61638672 17.12951172 -15.85777344 17.13402344 -15.07617188 17.13867188 C-13.19658129 17.1504932 -11.31703101 17.16842922 -9.4375 17.1875 C-9.44910156 16.04410156 -9.46070313 14.90070312 -9.47265625 13.72265625 C-9.48203288 12.23177246 -9.49113321 10.74088691 -9.5 9.25 C-9.50837891 8.49525391 -9.51675781 7.74050781 -9.52539062 6.96289062 C-9.53402441 5.03755687 -9.48974333 3.11214419 -9.4375 1.1875 C-7.33618615 -0.91381385 -2.89603678 0.00235259 0 0 Z " fill="#FBFDFD" transform="translate(151.4375,46.8125)"/>
<path d="M0 0 C1.29804565 -0.00315216 2.59609131 -0.00630432 3.93347168 -0.009552 C5.36124709 -0.00776222 6.78902219 -0.00571127 8.21679688 -0.00341797 C9.67028825 -0.00409105 11.12377952 -0.00506111 12.57727051 -0.00631714 C15.62720814 -0.00779393 18.67711654 -0.00564017 21.72705078 -0.00097656 C25.64485247 0.00472073 29.56258566 0.00144162 33.48038483 -0.00454903 C36.48285441 -0.00815515 39.48530764 -0.00701582 42.48777771 -0.00442123 C43.93273425 -0.00375211 45.37769226 -0.00457989 46.82264709 -0.00690079 C48.83879571 -0.00942812 50.8549495 -0.00489598 52.87109375 0 C54.59531555 0.00119339 54.59531555 0.00119339 56.35437012 0.00241089 C58.93554688 0.12939453 58.93554688 0.12939453 59.93554688 1.12939453 C60.0228091 2.91010699 60.04253729 4.69422593 60.03320312 6.47705078 C60.02836914 8.09643555 60.02836914 8.09643555 60.0234375 9.74853516 C60.01086914 11.45299805 60.01086914 11.45299805 59.99804688 13.19189453 C59.99353516 14.33207031 59.98902344 15.47224609 59.984375 16.64697266 C59.97254435 19.47449804 59.95606097 22.30192093 59.93554688 25.12939453 C51.34748967 25.15252088 42.75944539 25.17031111 34.17136478 25.1812067 C30.18397487 25.18643489 26.1966062 25.19353137 22.20922852 25.20483398 C18.36429573 25.21566515 14.51938343 25.22167185 10.67443657 25.22427177 C9.20435704 25.22612561 7.73427869 25.22974544 6.26420784 25.23512459 C4.2120022 25.24233808 2.1598822 25.24338535 0.10766602 25.24291992 C-1.06259628 25.24514053 -2.23285858 25.24736115 -3.43858337 25.24964905 C-6.06445312 25.12939453 -6.06445312 25.12939453 -7.06445312 24.12939453 C-7.16377466 22.43380727 -7.19525319 20.73413706 -7.19726562 19.03564453 C-7.19919922 17.49070313 -7.19919922 17.49070313 -7.20117188 15.91455078 C-7.19730469 14.83044922 -7.1934375 13.74634766 -7.18945312 12.62939453 C-7.19332031 11.54529297 -7.1971875 10.46119141 -7.20117188 9.34423828 C-7.19988281 8.31427734 -7.19859375 7.28431641 -7.19726562 6.22314453 C-7.1961377 5.27117187 -7.19500977 4.31919922 -7.19384766 3.33837891 C-6.92970126 -1.17104867 -3.84655509 0.00266233 0 0 Z " fill="#16B8A7" transform="translate(82.064453125,234.87060546875)"/>
<path d="M0 0 C3.59936918 2.82223265 6.66834469 6.24684563 8.71875 10.34765625 C8.71875 12.65765625 8.71875 14.96765625 8.71875 17.34765625 C-6.13125 17.34765625 -20.98125 17.34765625 -36.28125 17.34765625 C-34.25554131 9.24482148 -32.34398522 4.34634177 -25.65625 -0.58984375 C-17.86651672 -4.07472443 -7.44549567 -4.40104511 0 0 Z " fill="#FCFEFE" transform="translate(1342.28125,131.65234375)"/>
<path d="M0 0 C7.42239086 4.85059753 8.83196514 9.39228064 10.78125 18.1640625 C-4.06875 18.1640625 -18.91875 18.1640625 -34.21875 18.1640625 C-32.96740695 8.15331806 -32.96740695 8.15331806 -28.21875 3.1640625 C-20.30142794 -2.85310226 -9.2674833 -4.20178268 0 0 Z " fill="#FCFEFE" transform="translate(722.21875,130.8359375)"/>
</svg>
